<?xml version="1.0" encoding="UTF-8"?><svg id="Layer_5" xmlns="http://www.w3.org/2000/svg" xmlns:xlink="http://www.w3.org/1999/xlink" viewBox="0 0 1076.95 1933.02"><defs><style>.cls-1{fill:#43af71;}.cls-2{fill:#b5af99;}.cls-3{filter:url(#drop-shadow-8);}.cls-4{fill:#e3e0d1;}.cls-5{fill:#754c29;}.cls-6{fill:#c6c1b1;}.cls-7{fill:#a97c50;}.cls-8{fill:#603913;}.cls-9{fill:#1c8451;}.cls-10{fill:#3c2415;}.cls-11{fill:#8b5e3c;}.cls-12{fill:none;}.cls-13{fill:#7ec095;}</style><filter id="drop-shadow-8" filterUnits="userSpaceOnUse"><feOffset dx="7" dy="7"/><feGaussianBlur result="blur" stdDeviation="5"/><feFlood flood-color="#000" flood-opacity=".3"/><feComposite in2="blur" operator="in"/><feComposite in="SourceGraphic"/></filter></defs><g class="cls-3"><path class="cls-12" d="M208.55,1600.03c-4.67,3.13-9.14,6.16-13.43,9.1v-86.98c4.26-3.01,8.8-6.15,13.5-9.35v62.55s-.05,.02-.07,.03v24.64Z"/><path class="cls-12" d="M283.87,1553.22c-4.55,2.63-9.04,5.24-13.42,7.84v-87.21c4.41-2.57,8.9-5.14,13.5-7.73v76.62s-.05,.02-.07,.04v10.46Z"/><path class="cls-12" d="M246.21,1575.76c-4.6,2.86-9.06,5.67-13.42,8.45v-87.39c4.36-2.8,8.86-5.63,13.49-8.5v70.28s-.05,.02-.07,.03v17.12Z"/><path class="cls-12" d="M265.04,1564.28c-4.57,2.73-9.05,5.45-13.42,8.14v-87.34c4.39-2.69,8.88-5.39,13.5-8.12v74.43s-.05,.02-.07,.03v12.87Z"/><path class="cls-12" d="M152.06,1640.13c-6.17,4.68-10.77,8.28-13.74,10.63v-84.64c1.83-1.61,6.55-5.69,13.81-11.57v45.54s-.05,.02-.07,.03v40.01Z"/><path class="cls-12" d="M189.72,1612.87c-4.76,3.31-9.22,6.46-13.42,9.46v-86.5c4.16-3.1,8.71-6.41,13.49-9.84v58.11s-.05,.02-.07,.03v28.74Z"/><path class="cls-12" d="M170.89,1626.21c-4.94,3.58-9.42,6.87-13.42,9.86v-85.78c3.94-3.12,8.45-6.62,13.5-10.44v52.62s-.05,.02-.07,.03v33.71Z"/><path class="cls-12" d="M227.38,1587.68c-4.62,2.98-9.1,5.9-13.42,8.76v-87.23c4.33-2.91,8.83-5.88,13.49-8.92v66.44s-.05,.02-.07,.03v20.91Z"/><path class="cls-12" d="M534.24,1447.14v-80.5c5.62-1.34,11.25-2.68,16.95-3.92l-.38,80.33c-5.54,1.31-11.08,2.66-16.58,4.1Z"/><path class="cls-12" d="M585.87,1429.71l-4.02,6.64,1.15-.15c-2.95,.55-5.89,1.14-8.84,1.74l-.32-79.78c3.98-.75,8-1.45,12.02-2.15v73.7Z"/><path class="cls-12" d="M610.19,1352.15c4.53-.65,9.08-1.25,13.65-1.82v16.65s-13.65,22.55-13.65,22.55v-37.38Z"/><path class="cls-12" d="M434.59,1479.96c-1.55,.61-3.1,1.21-4.64,1.83l-.34-83.37c1.66-.61,3.3-1.24,4.98-1.84v83.38Z"/><path class="cls-12" d="M591.2,1420.89v-65.77c4.55-.76,9.06-1.57,13.65-2.26v45.48s-13.65,22.56-13.65,22.56Z"/><path class="cls-12" d="M302.7,1542.58c-4.55,2.52-9.02,5.03-13.43,7.54v-87c4.41-2.45,8.92-4.9,13.5-7.36v79.67s-.05,0-.07,0v1.96s.05-.02,.07-.03v1.48s-.05,.02-.07,.03v3.71Z"/><path class="cls-12" d="M383.44,1416.88c4.45-1.91,8.95-3.79,13.5-5.66v84.49c-4.54,2-9.03,4.03-13.5,6.08v-84.9Z"/><path class="cls-12" d="M359.27,1513.21c-4.54,2.21-9.05,4.44-13.49,6.68v-85.95c4.43-2.12,8.95-4.21,13.49-6.3v85.58Z"/><path class="cls-12" d="M364.6,1425.17c4.44-2.01,8.95-4,13.5-5.98v85.05c-4.54,2.11-9.05,4.23-13.5,6.37v-85.44Z"/><path class="cls-12" d="M402.27,1493.37v-84.33c2.33-.94,4.62-1.91,6.98-2.84l-.39,84.33c-2.21,.94-4.4,1.89-6.59,2.85Z"/><path class="cls-12" d="M574.22,1349.69c.33-.01,.67-.03,1-.04,6.01-.19,11.93-.28,17.8-.32-6.44,1.05-12.84,2.16-19.19,3.35v-2.98c.12,0,.26-.01,.39-.02Z"/><polygon class="cls-12" points="760.96 1427.79 744.54 1490.16 733.46 1482.03 749.81 1419.08 760.96 1427.79"/><path class="cls-12" d="M544.65,1090.7c-42.35-3.62-82.3-9.25-116.33-15.02l-.46-113.42c47.41-.57,89.09,4.1,125.15,11.64l-.55,117.43c-2.58-.2-5.16-.4-7.72-.62-.03,0-.07,0-.1,0Z"/><path class="cls-12" d="M437.3,1366.29c7.91-1.63,15.72-3.1,23.45-4.48,.93-.16,1.85-.33,2.78-.49,7.66-1.34,15.25-2.57,22.73-3.67,1.06-.16,2.15-.34,3.2-.49,7.03-1,13.96-1.88,20.83-2.68,1.71-.2,3.4-.36,5.1-.55,5.1-.56,10.17-1.08,15.18-1.53,2.02-.18,4.04-.35,6.05-.52,4.87-.4,9.69-.75,14.47-1.06,.06,0,.11,0,.17-.01l-.03,6.44c-43.1,9.31-83.79,21.56-121.63,35.47l-.1-24.79c2.61-.56,5.21-1.11,7.81-1.65Z"/><path class="cls-12" d="M633.97,1350.23l-4.79,7.92v-8.13c.77,.03,1.55,.05,2.31,.09,.83,.04,1.66,.08,2.48,.12Z"/><path class="cls-12" d="M321.54,1532.36c-4.54,2.41-9.01,4.83-13.42,7.24v-86.7c4.42-2.34,8.93-4.67,13.5-7v84.15s-.05,.02-.07,.03v2.27Z"/><path class="cls-12" d="M426.27,567.28l-.66-163.42c49.58-13.14,92.9-17.67,130.15-16.97l-.91,195.03-85.55-9.74h0s-43.03-4.9-43.03-4.9Z"/><path class="cls-12" d="M326.94,1529.5v-86.33c4.42-2.23,8.94-4.44,13.49-6.64v86.06c-3.23,1.65-6.43,3.3-9.61,4.95,0-.01-.02-.02-.02-.03-1.28,.67-2.59,1.33-3.86,2Z"/><path class="cls-12" d="M496.42,1376.55c4.47-1.28,8.96-2.52,13.49-3.74v81.09c-4.52,1.33-9.01,2.71-13.49,4.12v-81.47Z"/><path class="cls-12" d="M515.25,1371.42c4.54-1.19,9.05-2.41,13.65-3.54v80.7c-4.57,1.23-9.12,2.49-13.65,3.79v-80.95Z"/><path class="cls-12" d="M439.93,1394.7c4.47-1.6,8.95-3.19,13.5-4.74v82.78c-4.52,1.68-9.03,3.38-13.5,5.11v-83.15Z"/><path class="cls-12" d="M472.26,1465.99c-4.52,1.57-9.02,3.17-13.49,4.79v-82.61c4.45-1.48,8.97-2.92,13.49-4.35v82.17Z"/><polygon class="cls-12" points="745.23 1415.5 728.83 1478.63 718.56 1471.1 734.9 1407.44 745.23 1415.5"/><polygon class="cls-12" points="730.31 1403.86 713.93 1467.7 704.3 1460.64 720.78 1396.42 730.31 1403.86"/><polygon class="cls-12" points="698.5 1379.03 701.28 1381.2 684.61 1446.2 671.17 1436.35 698.5 1379.03"/><polygon class="cls-12" points="716.42 1393.02 716.16 1392.95 699.66 1457.24 689.25 1449.6 705.87 1384.79 716.42 1393.02"/><path class="cls-12" d="M477.59,1382.1c4.45-1.38,8.98-2.67,13.49-3.99v81.61c-4.52,1.45-9.02,2.93-13.49,4.45v-82.06Z"/><path class="cls-13" d="M485.91,130.31c-26.21-18.36-54.3-9.1-54.3-9.1,12.55-20.4,43.94-25.42,43.94-25.42-10.63-18.71-33.27-17.81-33.27-17.81,0,0,20.09-18.6,61.83-1.02,28.54,12.01,45.32,5.4,53.1,.01l-.28,59.96c-21.56,13.62-53.04,5.97-71.02-6.62Z"/><path class="cls-10" d="M428.32,1075.68c-6.03-1.02-11.87-2.05-17.51-3.07l.51-109.94c5.58-.21,11.1-.35,16.54-.42l.46,113.42Z"/><path class="cls-10" d="M429.59,1392.73c-6.87,2.53-13.64,5.1-20.32,7.73l.13-27.96c6.76-1.61,13.45-3.13,20.09-4.56l.1,24.79Z"/><path class="cls-10" d="M408.85,1490.53l.39-84.33c6.69-2.65,13.49-5.23,20.37-7.78l.34,83.37c-7.11,2.85-14.14,5.77-21.1,8.74Z"/><path class="cls-10" d="M426.27,567.28l-13.09-1.49,.74-158.71c3.93-1.13,7.83-2.2,11.69-3.22l.66,163.42Z"/><path class="cls-2" d="M726.82,877.9c6.55,47.74,9.29,106.69,3.42,177.18,0,0-51.56-50.15-157.92-76.75l-.52-128.55c62.75,2.34,114.32,13.91,155.02,28.12Z"/><path class="cls-2" d="M291.28,686.61c-1.13,3.05-2.26,6.1-3.41,9.15-.15,.4-.3,.8-.45,1.2-1.13,2.98-2.27,5.96-3.42,8.93-.43,1.1-.85,2.2-1.28,3.29-.86,2.22-1.73,4.43-2.61,6.64-.43,1.09-.86,2.18-1.3,3.27-1.03,2.58-2.07,5.15-3.11,7.72-.25,.62-.5,1.24-.75,1.85-1.27,3.13-2.55,6.24-3.84,9.34-.4,.97-.81,1.94-1.21,2.91-.92,2.2-1.84,4.39-2.76,6.57-.47,1.1-.93,2.2-1.4,3.3-.98,2.31-1.97,4.61-2.96,6.9-.34,.79-.68,1.58-1.02,2.37-1.3,3.01-2.61,6-3.92,8.98-.36,.83-.73,1.65-1.1,2.48-.98,2.23-1.97,4.45-2.95,6.65-.46,1.02-.91,2.04-1.37,3.06-.97,2.16-1.94,4.31-2.91,6.45-.37,.81-.74,1.63-1.11,2.44-1.32,2.89-2.63,5.77-3.95,8.61-.26,.55-.51,1.1-.77,1.65-1.09,2.36-2.18,4.71-3.27,7.03-.41,.87-.81,1.73-1.21,2.59-.96,2.04-1.92,4.07-2.87,6.08-.4,.84-.8,1.68-1.19,2.52-2.61,5.49-5.2,10.87-7.75,16.1-.37,.75-.73,1.5-1.1,2.25-.93,1.9-1.85,3.79-2.77,5.65-.4,.81-.79,1.61-1.19,2.41-1.1,2.23-2.2,4.44-3.29,6.62-.13,.26-.26,.52-.39,.78-1.24,2.49-2.47,4.94-3.69,7.35-.29,.58-.58,1.16-.88,1.74-.95,1.87-1.89,3.73-2.82,5.55-.3,.59-.6,1.18-.9,1.76-.98,1.92-1.95,3.81-2.91,5.67-.83,1.61-1.64,3.19-2.45,4.75-1.04,2.01-2.07,3.99-3.08,5.92-.13,.25-.26,.51-.39,.75-2.33,4.46-4.57,8.7-6.7,12.71-.12,.22-.24,.44-.35,.66-3.24,6.08-6.23,11.62-8.91,16.54-.02,.04-.05,.09-.07,.13-2.69,4.94-5.08,9.25-7.1,12.88-.06,.1-.11,.2-.17,.3-1.32,2.37-2.49,4.46-3.49,6.21-.02,.04-.04,.07-.06,.11-.47,.82-.89,1.57-1.28,2.25-.04,.07-.09,.15-.13,.22-.77,1.36-1.37,2.4-1.79,3.13-.08,.14-.16,.27-.22,.39-.08,.14-.17,.29-.23,.39-.05,.09-.11,.19-.15,.26-.05,.09-.11,.19-.11,.19,7.84-3.58,15.6-7.01,23.29-10.35,2.51-1.09,4.98-2.12,7.48-3.18,5.2-2.22,10.39-4.41,15.53-6.52,2.84-1.16,5.65-2.29,8.47-3.42,4.78-1.92,9.53-3.8,14.25-5.63,2.83-1.09,5.65-2.18,8.46-3.24,4.81-1.82,9.58-3.58,14.33-5.3,2.55-.93,5.12-1.87,7.65-2.77,5.5-1.95,10.94-3.82,16.35-5.64,1.69-.57,3.39-1.17,5.07-1.73,7.2-2.39,14.33-4.68,21.38-6.85,.73-.22,1.44-.42,2.16-.64,6.25-1.91,12.45-3.74,18.58-5.49,1.91-.54,3.8-1.05,5.7-1.58,4.97-1.38,9.91-2.73,14.81-4,2.07-.54,4.13-1.06,6.18-1.58,4.78-1.21,9.53-2.38,14.24-3.49,1.91-.45,3.82-.9,5.71-1.34,5.11-1.17,10.18-2.28,15.21-3.34,1.36-.29,2.74-.59,4.1-.87,13.17-2.71,26.06-5.05,38.62-7.02,0,0,.02,0,.03,0,6.15-.96,12.21-1.83,18.22-2.62,.95-.13,1.88-.24,2.83-.36,5.14-.66,10.22-1.27,15.26-1.81,1.07-.12,2.13-.23,3.19-.34,5.05-.52,10.06-.99,15-1.4,.81-.07,1.63-.14,2.44-.2,5.67-.45,11.28-.83,16.8-1.14h0c14.29-.78,28.1-1.09,41.45-.98l-.58,124.5c-36.06-7.54-77.74-12.21-125.15-11.64-5.43,.07-10.95,.21-16.54,.42-95.48,3.54-212.96,28.28-353.36,92.41,0,0,126.17-216.56,158.18-386.04l78.27,8.91c-.66,1.84-1.33,3.68-2,5.52-.38,1.05-.76,2.09-1.15,3.14Z"/><path class="cls-8" d="M550.82,1443.05l.38-80.33c7.47-1.62,15.04-3.12,22.66-4.56l.32,79.78c-7.82,1.57-15.61,3.28-23.35,5.11Z"/><path class="cls-8" d="M568.95,1092.52c-4.02-.26-8.03-.54-12.02-.84-.12,0-.24-.02-.36-.03-1.37-.1-2.74-.22-4.11-.33l.55-117.43,.58-124.5c6.16,.05,12.25,.16,18.21,.38l.52,128.55,.46,114.45c-1.28-.08-2.55-.17-3.83-.25h0Z"/><path class="cls-8" d="M555.76,386.88c4.83,.09,9.56,.26,14.18,.52l.79,196.32-15.89-1.81,.91-195.03Z"/><path class="cls-8" d="M556.93,136.94l.28-59.96,.04-9.19c-5.86-2.14-10.07-7.72-10.07-14.32,0-8.45,6.85-15.3,15.3-15.3,8.45,0,15.3,6.85,15.3,15.3,0,6.25-3.76,11.61-9.13,13.98l.62,155.24-12.74-1.45,.39-84.3Z"/><path class="cls-8" d="M556.3,1350.5c5.9-.33,11.74-.6,17.51-.79v2.98c-7.6,1.43-15.13,2.96-22.6,4.58l.03-6.44c1.68-.11,3.38-.23,5.05-.32Z"/><path class="cls-4" d="M277.28,1125.84c-2.51,4.43-4.93,8.83-7.32,13.23,2.39-4.4,4.81-8.81,7.32-13.23Z"/><path class="cls-4" d="M544.65,1090.7s.07,0,.1,0c-.03,0-.07,0-.1,0Z"/><path class="cls-4" d="M287.56,1108.25c-2.37,3.94-4.65,7.86-6.91,11.78,2.27-3.92,4.54-7.84,6.91-11.78Z"/><path class="cls-4" d="M942.25,1456.96s-79.61-72.8-233.85-98.68l140.7-295.11c19.9,42.27,99.75,223.33,93.16,393.79Z"/><path class="cls-4" d="M310.55,1072.27c-1.72,2.53-3.34,5.06-5.01,7.59,1.68-2.53,3.29-5.06,5.01-7.59Z"/><path class="cls-4" d="M633.98,1350.22v.02c-.83-.04-1.66-.08-2.49-.12,.82,.04,1.67,.06,2.49,.1Z"/><path class="cls-4" d="M298.63,1090.38c-2.14,3.36-4.19,6.7-6.25,10.05,2.07-3.35,4.11-6.69,6.25-10.05Z"/><path class="cls-4" d="M229.26,1226.21c-2.58,6.54-5.05,13.02-7.38,19.41,2.33-6.39,4.79-12.86,7.38-19.41Z"/><path class="cls-4" d="M323.77,1054.09c-.06-.01-.1-.03-.14-.04,.03,0,.1,.03,.14,.04Z"/><path class="cls-4" d="M250.78,1176.74c-2.59,5.45-5.1,10.87-7.51,16.25,2.41-5.38,4.92-10.79,7.51-16.25Z"/><path class="cls-4" d="M258.95,1160.08c-2.62,5.2-5.16,10.37-7.61,15.51,2.46-5.14,4.99-10.31,7.61-15.51Z"/><path class="cls-4" d="M267.76,1143.12c-2.59,4.85-5.11,9.68-7.55,14.49,2.45-4.81,4.95-9.64,7.55-14.49Z"/><path class="cls-4" d="M324.85,1054.36c-.1-.03-.2-.05-.29-.07,.08,.02,.2,.05,.29,.07Z"/><path class="cls-4" d="M331.41,1055.99s-.08-.02-.12-.03c.04,.01,.08,.02,.12,.03Z"/><path class="cls-4" d="M463.52,1361.33c-.92,.16-1.85,.32-2.78,.49,.93-.16,1.85-.33,2.78-.49Z"/><path class="cls-4" d="M618.5,1256.62c-1.64-4.97-3.21-9.97-4.82-14.95,15.37,4.31,31.73,10.74,48.87,20.13,0,0-16.77-41.35,10.87-75.49,0,0-33.93,9.86-73.67,11.41-.23-.74-.45-1.47-.68-2.21,1.51-20.98,7.39-41.24,20.81-57.04,0,0-16.41,2.51-37.87,.17-4.45-15.34-8.82-30.71-13.05-46.12,1.28,.08,2.55,.17,3.83,.25,78.58,4.81,162.34,1.6,229.66-20.86l-157.47,260.15c-9.11-25.03-18.01-50.15-26.47-75.45Z"/><path class="cls-4" d="M486.36,1357.65c-1.12-5.19-.41-6.15,3.04-.47,.02,0,.04,0,.06,0-1.06,.15-2.14,.34-3.2,.49,.03,0,.07-.01,.1-.02Z"/><path class="cls-4" d="M363.41,1331.86c3.41,5.64,6.54,10.33,9.45,14.13,5.14,6.87,9.31,11.12,12.83,13.65,7.04,5.04,11.51,3.16,15.98,1.29,4.47-1.87-17.02-40.53-6.87-28.87-16.37-40.78-40.34-109.94-20-70.69,9.92,11.82,26.25,68.15,39.08,78.63,7.3,6.29,8.71-1.45,11.19-6.66,3.98,11.08,8.08,22.02,12.18,32.97,.01,0,.03,0,.04,0-2.59,.53-5.2,1.09-7.81,1.65-6.63,1.43-13.33,2.95-20.09,4.56-8.34,1.99-16.79,4.13-25.32,6.41,.17-.04,.34-.09,.51-.14-7.19-15.57-14.26-31.2-21.19-46.91Z"/><path class="cls-4" d="M551.08,1350.83c1.74-.11,3.49-.23,5.22-.33-1.67,.1-3.37,.21-5.05,.32-.06,0-.11,0-.17,.01Z"/><path class="cls-4" d="M274.67,1257.76c12.35,10.63,7.82-18.92,20.14-8.33,5.62,13.35,16.84,40.02,22.45,53.36,10.3,11.22,7.52-19.01,13.33-5.81,.85,1.43,1.7,2.93,2.54,4.41,2.68,6.83,5.34,13.68,8.06,20.44,.74-.29,1.39-1.01,2-1.89,6.82,13.28,13.62,27.77,20.48,43,2.96,6.25,5.98,12.61,9.03,19.04,.03,0,.05-.01,.08-.02-60.42,16.91-125.46,41.24-195.08,75,0,0,.07-90.59,44.15-211.27,4.33,7.46,8.22,13.42,11.79,18.07,5.14,6.87,9.31,11.12,12.83,13.65,7.04,5.04,11.51,3.16,15.98,1.29,4.47-1.87-17.02-40.53-6.87-28.88-5.53-13.79-11.93-30.81-17.2-45.8-2.97,6.9-5.78,13.72-8.45,20.47,4.1-10.3,8.54-20.78,13.31-31.42,9.52,21.16,21.52,56.58,31.44,64.68Z"/><path class="cls-4" d="M575.22,1349.65c-.33,.01-.67,.03-1,.04,.33-.01,.67-.03,1-.04Z"/><path class="cls-4" d="M326.44,1054.76c-.11-.03-.21-.05-.32-.08,.1,.03,.21,.05,.32,.08Z"/><path class="cls-4" d="M536.61,1351.89c-2.01,.17-4.02,.34-6.05,.52,2.02-.18,4.04-.35,6.05-.52Z"/><path class="cls-4" d="M328.75,1055.34c-.17-.04-.33-.08-.5-.12,.16,.04,.33,.08,.5,.12Z"/><path class="cls-4" d="M515.38,1353.94c-1.7,.19-3.39,.35-5.1,.55,1.71-.2,3.4-.36,5.1-.55Z"/><path class="cls-4" d="M556.93,1091.68c-.12,0-.24-.02-.36-.03,.12,0,.24,.02,.36,.03Z"/><path class="cls-4" d="M327.1,565.67c-.2,.95-.4,1.9-.6,2.86,.2-.95,.41-1.91,.6-2.86Z"/><path class="cls-4" d="M299.56,663.41c-.23,.66-.46,1.33-.69,1.99,.23-.66,.47-1.33,.69-1.99Z"/><path class="cls-4" d="M307.17,640.42c-.35,1.1-.7,2.2-1.06,3.3,.35-1.1,.71-2.2,1.06-3.3Z"/><path class="cls-4" d="M303.79,650.84c-.32,.96-.63,1.91-.95,2.87,.32-.96,.63-1.91,.95-2.87Z"/><path class="cls-4" d="M322.38,586.59c-.13,.51-.24,1.03-.37,1.54,.13-.52,.24-1.03,.37-1.54Z"/><path class="cls-4" d="M316.92,607.64c-.3,1.09-.6,2.18-.91,3.27,.31-1.09,.61-2.18,.91-3.27Z"/><path class="cls-4" d="M310.28,630.49c-.25,.81-.51,1.63-.76,2.44,.25-.81,.51-1.63,.76-2.44Z"/><path class="cls-4" d="M319.57,597.76c-.25,.94-.5,1.88-.75,2.82,.25-.94,.5-1.88,.75-2.82Z"/><path class="cls-4" d="M324.98,575.44c-.23,1.01-.45,2.03-.69,3.04,.23-1.02,.46-2.03,.69-3.04Z"/><path class="cls-4" d="M313.9,618.33c-.24,.81-.47,1.63-.71,2.44,.24-.82,.47-1.63,.71-2.44Z"/><path class="cls-4" d="M296.11,673.26c-.4,1.12-.8,2.24-1.2,3.36,.4-1.12,.8-2.24,1.2-3.36Z"/><path class="cls-4" d="M226.29,836.91c.37-.75,.73-1.49,1.1-2.25-.37,.75-.73,1.5-1.1,2.25Z"/><path class="cls-4" d="M291.28,686.61c.38-1.04,.77-2.09,1.15-3.14-.38,1.05-.76,2.09-1.15,3.14Z"/><path class="cls-4" d="M222.33,844.97c.39-.8,.79-1.6,1.19-2.41-.4,.81-.79,1.61-1.19,2.41Z"/><path class="cls-4" d="M287.41,696.96c.15-.4,.3-.8,.45-1.2-.15,.4-.3,.8-.45,1.2Z"/><path class="cls-4" d="M185.52,915.9s.05-.09,.07-.13c-.02,.04-.05,.09-.07,.13Z"/><path class="cls-4" d="M495.35,851.51c-.81,.06-1.63,.14-2.44,.2,.81-.07,1.63-.14,2.44-.2Z"/><path class="cls-4" d="M235.15,818.56c.4-.83,.8-1.68,1.19-2.52-.4,.84-.8,1.68-1.19,2.52Z"/><path class="cls-4" d="M477.9,853.11c-1.06,.11-2.12,.22-3.19,.34,1.07-.12,2.13-.23,3.19-.34Z"/><path class="cls-4" d="M459.46,855.26c-.94,.12-1.88,.23-2.83,.36,.95-.13,1.88-.24,2.83-.36Z"/><path class="cls-4" d="M282.71,709.18c.43-1.1,.86-2.19,1.28-3.29-.43,1.1-.85,2.2-1.28,3.29Z"/><path class="cls-4" d="M173.3,937.88c.04-.07,.08-.15,.13-.22-.04,.08-.08,.15-.13,.22Z"/><path class="cls-4" d="M194.5,899.23c.12-.22,.24-.44,.35-.66-.12,.22-.24,.44-.35,.66Z"/><path class="cls-4" d="M438.41,858.24s-.02,0-.03,0c0,0,.02,0,.03,0Z"/><path class="cls-4" d="M178.25,929.09c.05-.1,.11-.2,.17-.3-.06,.1-.11,.2-.17,.3Z"/><path class="cls-4" d="M170.91,942.05c.04-.06,.09-.16,.15-.26-.07,.12-.11,.19-.15,.26Z"/><path class="cls-4" d="M261.77,760.03c.34-.79,.68-1.58,1.02-2.37-.34,.79-.68,1.58-1.02,2.37Z"/><path class="cls-4" d="M270.27,901.82c-2.54,.9-5.1,1.84-7.65,2.77,2.55-.93,5.12-1.87,7.65-2.77Z"/><path class="cls-4" d="M256.75,771.48c.37-.83,.73-1.65,1.1-2.48-.36,.83-.73,1.65-1.1,2.48Z"/><path class="cls-4" d="M201.57,928.71c-2.49,1.06-4.97,2.09-7.48,3.18,2.51-1.09,4.98-2.12,7.48-3.18Z"/><path class="cls-4" d="M248.29,909.9c-2.81,1.06-5.63,2.15-8.46,3.24,2.83-1.09,5.65-2.18,8.46-3.24Z"/><path class="cls-4" d="M225.57,918.77c-2.82,1.13-5.63,2.26-8.47,3.42,2.84-1.17,5.65-2.29,8.47-3.42Z"/><path class="cls-4" d="M265.74,750.76c.47-1.1,.93-2.2,1.4-3.3-.47,1.1-.93,2.2-1.4,3.3Z"/><path class="cls-4" d="M214.1,861.45c.29-.58,.58-1.15,.88-1.74-.29,.58-.58,1.16-.88,1.74Z"/><path class="cls-4" d="M171.29,941.4c.07-.12,.14-.24,.22-.39-.09,.16-.15,.26-.22,.39Z"/><path class="cls-4" d="M201.55,885.86c.13-.25,.26-.5,.39-.75-.13,.25-.26,.51-.39,.75Z"/><path class="cls-4" d="M210.38,868.76c.3-.58,.6-1.17,.9-1.76-.3,.59-.6,1.18-.9,1.76Z"/><path class="cls-4" d="M248.41,790.08c.37-.81,.74-1.63,1.11-2.44-.37,.81-.74,1.63-1.11,2.44Z"/><path class="cls-4" d="M252.43,781.19c.46-1.02,.91-2.03,1.37-3.06-.46,1.02-.91,2.04-1.37,3.06Z"/><path class="cls-4" d="M218.66,852.37c.13-.26,.26-.52,.39-.78-.13,.26-.26,.52-.39,.78Z"/><path class="cls-4" d="M239.21,809.96c.4-.86,.81-1.72,1.21-2.59-.41,.87-.81,1.73-1.21,2.59Z"/><path class="cls-4" d="M339.52,879.89c-1.9,.53-3.79,1.04-5.7,1.58,1.91-.54,3.8-1.05,5.7-1.58Z"/><path class="cls-4" d="M360.51,874.31c-2.06,.52-4.11,1.04-6.18,1.58,2.07-.54,4.13-1.06,6.18-1.58Z"/><path class="cls-4" d="M243.7,800.34c.26-.55,.51-1.1,.77-1.65-.26,.55-.51,1.1-.77,1.65Z"/><path class="cls-4" d="M380.46,869.48c-1.9,.44-3.8,.89-5.71,1.34,1.91-.45,3.82-.9,5.71-1.34Z"/><path class="cls-4" d="M399.76,865.27c-1.36,.28-2.73,.58-4.1,.87,1.36-.29,2.74-.59,4.1-.87Z"/><path class="cls-4" d="M207.01,875.35c2.58,13.03,5.25,26.08,8.09,39.15-3.33-11.99-6.5-24.02-9.7-36.05-.13,.25-.25,.48-.38,.73,.81-1.56,1.62-3.14,2.45-4.75-.15,.3-.32,.62-.47,.92Z"/><path class="cls-4" d="M174.7,935.41s.04-.07,.06-.11c-.02,.04-.04,.07-.06,.11Z"/><path class="cls-4" d="M269.9,740.9c.4-.97,.81-1.94,1.21-2.91-.4,.97-.81,1.94-1.21,2.91Z"/><path class="cls-4" d="M291.69,894.45c-1.68,.56-3.39,1.16-5.07,1.73,1.69-.57,3.39-1.17,5.07-1.73Z"/><path class="cls-4" d="M315.23,886.96c-.72,.22-1.43,.42-2.16,.64,.73-.22,1.44-.42,2.16-.64Z"/><path class="cls-4" d="M278.8,719.09c.43-1.09,.87-2.18,1.3-3.27-.43,1.09-.86,2.18-1.3,3.27Z"/><path class="cls-4" d="M274.95,728.66c.25-.61,.5-1.23,.75-1.85-.25,.62-.5,1.24-.75,1.85Z"/><path class="cls-4" d="M571.8,849.78c62.75,2.34,114.32,13.91,155.02,28.12,78.19,27.3,116.25,64.34,116.25,64.34,18.83-225.97-50.84-333.31-50.84-333.31l-221.49-25.21-15.89-1.81-85.55-9.74c10.61,93.07,24.71,186,42.86,278.2,14.29-.78,28.1-1.09,41.45-.98,6.16,.05,12.25,.16,18.21,.38Zm-16.66-44.16c11.32-24.5,17.18-47.16,19.6-67.48-44.93-.49-73.14,15.73-73.14,15.73,17.94-35.51,9.97-80.2,9.97-80.2,16.59,16.17,39.84,23.8,63.94,26.66-3.47-42.15-20.36-67.39-20.36-67.39,36.65,15.47,76.05,9.37,76.05,9.37-13.89,16.35-19.67,37.5-20.92,59.27,40.07-1.45,74.46-11.44,74.46-11.44-27.64,34.14-10.87,75.49-10.87,75.49-21.9-12-42.55-19.23-61.44-23.26,5.58,37.75,18.77,68.94,18.77,68.94-35.94-25.25-76.05-5.7-76.05-5.7Z"/><path class="cls-4" d="M555.76,386.88c4.83,.09,9.56,.26,14.18,.52,109.01,6.11,161.37,57.07,161.37,57.07,11.69-140.3-31.57-206.94-31.57-206.94l-130.46-14.85-12.74-1.45-144.41-16.44s0,.03-.01,.05l35.11,4c-.02,38.39,.79,77.1,2.33,115.75,.97,24.16,2.3,48.36,3.8,72.56-41.57,8.75-87.95,23.64-139.28,47.04-.08,.13-.16,.28-.16,.28,35.71-16.31,69.03-28.52,100.01-37.4,3.93-1.13,7.83-2.2,11.69-3.22,49.58-13.14,92.9-17.67,130.15-16.97Zm-21.2-22.75c8.73-18.88,13.24-36.34,15.1-52-34.63-.38-56.37,12.12-56.37,12.12,13.83-27.37,7.68-61.81,7.68-61.81,12.79,12.46,30.71,18.34,49.28,20.55-2.67-32.49-15.69-51.94-15.69-51.94,28.25,11.92,58.61,7.22,58.61,7.22-10.71,12.6-15.16,28.9-16.12,45.68,30.89-1.12,57.39-8.81,57.39-8.81-21.3,26.3-8.38,58.17-8.38,58.17-16.88-9.24-32.79-14.82-47.35-17.92,4.3,29.09,14.46,53.13,14.46,53.13-27.7-19.46-58.61-4.4-58.61-4.4Z"/><path class="cls-5" d="M996.42,770.25c0-4.94-4-8.94-8.94-8.94-4.94,0-8.94,4-8.94,8.94,0,2.48,1.01,4.73,2.65,6.35l-178.75,295.31-157.47,260.15-10.99,18.15v.02s-4.8,7.92-4.8,7.92v-8.13c-11.74-.52-23.78-.78-36.16-.7-6.44,1.05-12.84,2.16-19.19,3.35-7.61,1.43-15.14,2.96-22.61,4.58-43.1,9.31-83.79,21.56-121.63,35.47-6.87,2.53-13.64,5.1-20.32,7.73-167.53,65.9-273.91,161.12-275.42,162.49-.56,.51-.87,1.22-.87,1.97v42.09c1.75-.62,3.51-1.24,5.26-1.84v45.66s.05-.04,.07-.06v-84.64c1.83-1.61,6.55-5.69,13.81-11.57v45.54c1.75-.66,3.49-1.28,5.26-1.98v38.01s.05-.04,.07-.05v-85.78c3.94-3.12,8.45-6.62,13.5-10.44v52.62c1.75-.76,3.5-1.49,5.26-2.26v32.17s.05-.04,.07-.05v-86.5c4.16-3.1,8.71-6.41,13.49-9.84v58.11c1.75-.81,3.51-1.62,5.26-2.44v27.53s.05-.03,.07-.05v-86.98c4.26-3.01,8.8-6.15,13.5-9.35v62.55c1.76-.82,3.51-1.62,5.26-2.44v23.56s.05-.03,.07-.05v-87.23c4.33-2.91,8.83-5.88,13.49-8.92v66.44c1.76-.79,3.51-1.58,5.27-2.35v19.87s.05-.03,.07-.04v-87.39c4.36-2.8,8.86-5.63,13.49-8.5v70.28c1.75-.73,3.52-1.5,5.27-2.19v16.04s.05-.03,.07-.04v-87.34c4.39-2.69,8.88-5.39,13.5-8.12v74.43c.81-.28,1.64-.63,2.45-.9,.91-.31,1.85-.68,2.82-1.08v11.69s.05-.03,.07-.04v-87.21c4.41-2.57,8.9-5.14,13.5-7.73v76.62c1.76-.91,3.52-1.8,5.27-2.64v10.08s.05-.03,.07-.04v-87c4.41-2.45,8.92-4.9,13.5-7.36v79.67c1.43-.15,2.79-.13,4.03,.13-1.34,.6-2.69,1.2-4.03,1.8v1.48c1.79-.6,3.55-1.27,5.26-2.03v2.83s.05-.03,.07-.04v-86.7c4.42-2.34,8.93-4.67,13.5-7v84.15c1.73-.85,3.48-1.63,5.26-2.36v1.84s.05-.03,.07-.04v-86.33c4.42-2.23,8.94-4.44,13.49-6.64v86.06c-3.23,1.65-6.43,3.3-9.61,4.95,.77,1.41,1.77,2.05,5.25,1.56-7.65,3.43-19.63,7.46-26.79,12l1.48,3.31c8.15-2.32,18.64-9.67,26.79-12,.49,1.11,1.48,3.32,1.98,4.43,.49,1.1,4.32-.61,8.15-2.32-3.82,1.71-11.48,5.14-15.31,6.85,.49,1.1,1.48,3.32,1.98,4.42,.49,1.11,4.32-.6,8.15-2.32,.99,2.21,5.81,2.71,2.48,5.53-3.83,1.71-7.65,3.43-11.48,5.14,11.28-4.1,19.6-4.18,24.01-2.7,2.09-.41,4.05-.52,5.78-.15-1.08,.48-2.17,.97-3.25,1.45l.87,1.06c-1.22,.17-1.96,.57-2.51,1.05,9.94-3.14,18.48-9.42,28.35-12.74,.99,2.21,1.48,3.32,5.81,2.71-7.65,3.43-19.63,7.46-26.79,12l.16,.35c3.33-.07,5.62,.27,5.86,1.28,7.27-3.12,15.55-8.4,22.26-10.31,.49,1.11,1.48,3.32,1.98,4.43,.5,1.11,4.32-.61,8.15-2.32-3.82,1.71-11.48,5.14-15.31,6.85,.49,1.1,1.48,3.32,1.98,4.42,.5,1.11,4.32-.6,8.15-2.32,.99,2.21,5.81,2.71,2.48,5.53-3.83,1.71-7.65,3.43-11.48,5.14,15.8-5.75,25.93-3.65,27.42-.33-4.33,.61-2.84,3.93-7.16,4.53,12.96-1.82,26.42-2.54,11.61,5.41-13.42,6.41-26.97,12.73-40.53,19.03l.39,.86c8.15-2.32,18.64-9.67,26.79-12,.5,1.11,1.48,3.32,1.98,4.42,.5,1.1,4.32-.61,8.15-2.32-3.82,1.71-11.48,5.14-15.31,6.85,.5,1.1,1.48,3.32,1.98,4.42,.5,1.11,4.32-.6,8.15-2.32,.99,2.21,5.81,2.71,2.48,5.53-3.83,1.72-7.65,3.43-11.48,5.14,4-1.46,7.63-2.4,10.85-2.96,.62-.21,1.26-.48,1.88-.69,11.98-4.04,29.12-17.03,39.25-14.93-3.82,1.71-7.65,3.43-11.48,5.14,12.96-1.82,22.96-10.28,34.93-14.31,.99,2.21,1.49,3.32,5.81,2.71-7.65,3.43-19.63,7.46-26.79,12l1.48,3.31c8.15-2.32,18.64-9.67,26.79-12,.5,1.11,1.48,3.32,1.98,4.42,.5,1.1,4.32-.61,8.15-2.32-3.82,1.71-11.48,5.14-15.31,6.85,.5,1.1,1.48,3.32,1.98,4.42,.5,1.11,4.32-.6,8.15-2.32,.99,2.21,5.81,2.71,2.47,5.53-3.83,1.72-7.65,3.43-11.48,5.14,15.8-5.75,25.93-3.65,27.42-.33-4.33,.61-2.84,3.93-7.16,4.53,12.96-1.82,26.42-2.54,11.61,5.41-5.54,2.64-11.16,5.22-16.72,7.85l.53,1.18c.5,1.11,4.32-.6,8.15-2.32,.99,2.21,5.81,2.71,2.47,5.53-3.83,1.72-7.65,3.43-11.48,5.14,15.81-5.75,25.93-3.65,27.42-.33-4.33,.61-2.84,3.93-7.16,4.53,12.96-1.82,26.42-2.54,11.61,5.41-5.65,2.7-11.38,5.33-17.06,8.01,.52,1.16,1.19,2.67,1.58,3.53,.5,1.11,4.32-.61,8.15-2.32-3.82,1.71-11.48,5.14-15.31,6.85,.5,1.11,1.48,3.32,1.98,4.42,.5,1.11,4.32-.6,8.15-2.32,.99,2.21,5.81,2.71,2.47,5.53-3.83,1.72-7.65,3.43-11.48,5.14,15.8-5.75,25.93-3.65,27.42-.33-4.33,.61-2.84,3.93-7.16,4.53,12.96-1.82,26.42-2.54,11.61,5.41-33.59,16.05-67.65,31.71-101.99,47.09l.42,.05c-3.82,1.71-7.65,3.43-11.48,5.14,12.96-1.82,22.96-10.28,34.93-14.31,.99,2.21,1.48,3.32,5.81,2.71-7.65,3.43-19.63,7.46-26.79,12l1.49,3.31c8.15-2.32,18.64-9.67,26.79-12,.5,1.11,1.49,3.32,1.98,4.42,.5,1.1,4.32-.61,8.15-2.32-3.82,1.71-11.48,5.14-15.31,6.85,.5,1.1,1.49,3.32,1.98,4.42,.5,1.11,4.32-.6,8.15-2.32,.99,2.21,5.81,2.71,2.47,5.53-3.83,1.72-7.65,3.43-11.48,5.14,15.8-5.75,25.93-3.65,27.42-.33-4.33,.61-2.84,3.93-7.16,4.53,12.96-1.82,26.42-2.54,11.61,5.41-16.71,7.98-33.54,15.87-50.46,23.68l1.19,2.65c8.15-2.32,18.64-9.67,26.79-12,.5,1.11,1.49,3.32,1.98,4.42,.5,1.1,4.32-.61,8.15-2.32-3.82,1.71-11.48,5.14-15.31,6.85,.5,1.1,1.49,3.32,1.98,4.42,.5,1.11,4.32-.6,8.15-2.32,.99,2.21,5.81,2.71,2.47,5.53-3.83,1.72-7.65,3.43-11.48,5.14,15.8-5.75,25.93-3.65,27.42-.33-4.33,.61-2.84,3.93-7.16,4.53,12.96-1.82,26.42-2.54,11.61,5.41-15.63,7.47-31.37,14.84-47.18,22.15h-196.2s-45.09,0-45.09,0c.02,0,.06,.03,.06,.03h473.74c-1.71-.81-3.37-1.71-4.88-2.89,1.16-2.13,1.74-3.19,.11-5.47,4.32,2.36,10.19,6.87,15.13,8.35h.45s1.67-3.05,1.67-3.05c-3.85-3.49-11.66-5-15.51-8.49,.58-1.06,1.74-3.19,2.32-4.25,.58-1.06-1.63-2.27-3.85-3.49,2.21,1.21,6.65,3.64,8.86,4.85,.58-1.06,1.75-3.19,2.32-4.25,.58-1.07-1.63-2.28-3.85-3.49,1.16-2.12,.11-5.46,2.9-5.31,2.22,1.21,4.43,2.43,6.65,3.64-8.28-5.91-9.81-13.65-8.07-16.84,1.64,2.28,3.38-.91,5.01,1.36-2.73-3.79-5.27-7.91-5.36-10.17-6.34-2.79-13.9-5.27-15.02-10.97,2.21,1.21,4.43,2.42,6.64,3.63-4.9-6.83-13.29-7.27-19.35-11.97,1.16-2.13,1.74-3.19,.11-5.47,4.43,2.43,10.49,7.12,15.51,8.48l1.74-3.18c-3.85-3.49-11.66-5-15.51-8.48,.58-1.07,1.74-3.19,2.32-4.25,.58-1.06-1.63-2.27-3.85-3.48,2.21,1.21,6.65,3.63,8.86,4.85,.58-1.06,1.74-3.19,2.32-4.25,.58-1.07-1.63-2.28-3.85-3.49,1.16-2.12,.11-5.46,2.9-5.31,2.22,1.21,4.43,2.42,6.65,3.63-1.97-1.41-3.54-2.93-4.8-4.46-1.68-.8-3.3-1.69-4.78-2.83,1.16-2.13,1.74-3.19,.11-5.47l.94,.54c-.3-1.89-.13-3.54,.46-4.62l.53,.53c.5-.91,1.21-2.22,1.76-3.22-.69-1.12-1.29-2.19-1.74-3.17-.55-.33-1.14-.65-1.74-.98,.47,.26,1.08,.59,1.71,.94-1.73-3.75-1.3-6.06,4.7-3.66,1.53,.75,3.04,1.56,4.57,2.32-.59-.8-2.09-1.64-3.64-2.5,1.16-2.12,.11-5.46,2.91-5.31,2.22,1.21,4.43,2.42,6.65,3.63-8.28-5.91-9.81-13.65-8.07-16.84,1.64,2.28,3.38-.91,5.01,1.36-1.37-1.9-2.68-3.88-3.67-5.67-2.75-1.66-4.87-3.67-5.42-6.46,1.25,.68,2.49,1.36,3.74,2.04-.03-.5,.05-.91,.27-1.21-4.93-4.23-11.63-5.23-16.72-9.17,1.16-2.13,1.74-3.19,.11-5.47,4.43,2.43,10.49,7.12,15.51,8.48l1.74-3.18c-3.85-3.49-11.66-5-15.51-8.48,.58-1.07,1.74-3.19,2.32-4.25,.58-1.06-1.63-2.27-3.85-3.48,2.21,1.21,6.65,3.63,8.86,4.85,.58-1.06,1.74-3.19,2.32-4.25,.58-1.07-1.63-2.28-3.85-3.49,.44-.81,.56-1.79,.7-2.69-4.63-2.08-8.8-4.51-9.61-8.62,2.21,1.21,4.43,2.42,6.64,3.63-4.9-6.82-13.29-7.27-19.35-11.97,1.16-2.13,1.75-3.19,.11-5.47,4.43,2.42,10.49,7.12,15.51,8.48l1.74-3.19c-3.85-3.49-11.66-5-15.51-8.48,.58-1.06,1.75-3.19,2.33-4.25,.58-1.06-1.64-2.27-3.85-3.49,2.21,1.21,6.65,3.64,8.86,4.85,.58-1.06,1.74-3.19,2.32-4.25,.58-1.07-1.63-2.28-3.85-3.49,1.16-2.12,.11-5.46,2.9-5.31,2.22,1.21,4.43,2.43,6.65,3.64-8.28-5.91-9.81-13.65-8.07-16.84,1.64,2.28,3.38-.91,5.01,1.36-4.9-6.82-9.22-14.71,.21-10.92,8.97,4.43,17.9,9.01,26.82,13.65,.24-1.62,.39-3.08,2.26-2.98,2.22,1.21,4.43,2.42,6.65,3.63-8.28-5.91-9.81-13.65-8.07-16.83,1.64,2.28,3.38-.91,5.01,1.36-4.09-5.68-7.73-12.08-3.39-11.88-3.67-1.69-7.54-3-10.77-5.5,1.16-2.13,1.74-3.19,.11-5.47,4.43,2.42,10.49,7.12,15.51,8.48l1.74-3.18c-3.85-3.49-11.66-5-15.51-8.48,.58-1.07,1.74-3.19,2.32-4.25s-1.63-2.27-3.85-3.48c2.21,1.21,6.65,3.63,8.86,4.85,.58-1.06,1.75-3.19,2.32-4.25,.58-1.07-1.63-2.28-3.85-3.49,.55-1,.61-2.27,.81-3.31-7.49-4.1-14.67-8.38-20.9-13.21-6.07-4.7-19.47-6.5-20.99-14.24,2.21,1.21,4.43,2.42,6.64,3.63-4.9-6.82-13.29-7.27-19.36-11.97,1.16-2.13,1.75-3.19,.11-5.47,4.43,2.42,10.49,7.12,15.51,8.48l1.74-3.19c-3.85-3.49-11.66-5-15.51-8.48,.58-1.07,1.75-3.19,2.33-4.25,.58-1.06-1.64-2.27-3.85-3.48,2.21,1.21,6.65,3.63,8.86,4.85,.58-1.06,1.75-3.19,2.32-4.25,.58-1.07-1.63-2.28-3.85-3.49,1.16-2.12,.11-5.46,2.91-5.31,2.22,1.21,4.43,2.42,6.65,3.63-8.28-5.91-9.81-13.65-8.06-16.83,1.64,2.28,3.38-.91,5.01,1.36-4.9-6.82-9.23-14.71,.22-10.92,12.31,6.09,24.57,12.45,36.8,18.91l1.02-1.86c-3.85-3.49-11.66-5-15.51-8.48,.58-1.07,1.75-3.19,2.33-4.25,.58-1.06-1.63-2.27-3.85-3.48,2.21,1.21,6.65,3.63,8.86,4.85,.58-1.06,1.75-3.19,2.32-4.25,.58-1.07-1.63-2.28-3.85-3.49,1.16-2.12,.11-5.46,2.91-5.31,2.22,1.21,4.43,2.42,6.65,3.63-7.59-5.41-9.47-12.31-8.4-15.89l68.62,50.33s-.05,.26-.12,.74l17.59-66.8c.27-1.03-.1-2.13-.94-2.78l-64.78-50.57,7.54-15.82,140.7-295.11,135.62-284.45c.88,.29,1.8,.48,2.77,.48,4.94,0,8.94-4,8.94-8.94Zm-262.96,711.77l16.35-62.95,11.15,8.71-16.42,62.37-11.08-8.13Zm-14.9-10.93l16.33-63.66,10.33,8.06-16.4,63.13-10.27-7.53Zm-14.26-10.46l16.48-64.22,9.53,7.44-16.38,63.84-9.63-7.06Zm-15.05-11.04l16.63-64.81,10.55,8.23-.26-.07-16.49,64.29-10.42-7.64Zm-18.07-13.25l27.33-57.32,2.78,2.17-16.68,65-13.43-9.85Zm-155.92,16.02v-80.95c4.54-1.19,9.05-2.41,13.65-3.54v80.7c-4.57,1.23-9.12,2.49-13.65,3.79Zm-18.83,5.65v-81.47c4.47-1.28,8.96-2.52,13.49-3.74v81.09c-4.52,1.33-9.01,2.71-13.49,4.12Zm-18.83,6.15v-82.06c4.45-1.38,8.98-2.67,13.49-3.99v81.61c-4.52,1.45-9.02,2.93-13.49,4.45Zm-18.83-75.99c4.45-1.48,8.97-2.92,13.49-4.35v82.17c-4.52,1.57-9.02,3.17-13.49,4.79v-82.61Zm-5.34,84.56c-4.52,1.68-9.03,3.38-13.5,5.11v-83.15c4.47-1.6,8.95-3.19,13.5-4.74v82.78Zm-69.99,29.04v-84.9c4.45-1.91,8.95-3.79,13.5-5.66v84.49c-4.54,2-9.03,4.03-13.5,6.08Zm-5.34,2.47c-4.54,2.11-9.05,4.23-13.5,6.37v-85.44c4.44-2.01,8.95-4,13.5-5.98v85.05Zm-32.33-70.31c4.43-2.12,8.95-4.21,13.49-6.3v85.58c-4.54,2.21-9.05,4.44-13.49,6.68v-85.95Zm83.84-35.52c1.66-.61,3.3-1.24,4.98-1.84v83.38c-1.55,.61-3.1,1.21-4.64,1.83-7.11,2.85-14.14,5.77-21.1,8.74-2.21,.94-4.4,1.89-6.59,2.85v-84.33c2.33-.94,4.62-1.91,6.98-2.84,6.69-2.65,13.49-5.23,20.37-7.78Zm144.23-40.26c3.98-.75,8-1.45,12.02-2.15v73.7s-4.02,6.64-4.02,6.64l1.15-.15c-2.95,.55-5.89,1.14-8.84,1.74-7.82,1.57-15.61,3.28-23.35,5.11-5.54,1.31-11.08,2.66-16.58,4.1v-80.5c5.62-1.34,11.25-2.68,16.95-3.92,7.47-1.62,15.04-3.12,22.66-4.56Zm31.01-5.3v45.48s-13.65,22.56-13.65,22.56v-65.77c4.55-.76,9.06-1.57,13.65-2.26Zm18.99,14.11l-13.65,22.55v-37.38c4.53-.65,9.08-1.25,13.65-1.82v16.65Z"/><path class="cls-4" d="M534.55,364.13c8.73-18.88,13.24-36.34,15.1-52-34.63-.38-56.37,12.12-56.37,12.12,13.83-27.37,7.68-61.81,7.68-61.81,12.79,12.46,30.71,18.34,49.28,20.55-2.67-32.49-15.69-51.94-15.69-51.94,28.25,11.92,58.61,7.22,58.61,7.22-10.71,12.6-15.16,28.9-16.12,45.68,30.89-1.12,57.39-8.81,57.39-8.81-21.3,26.3-8.38,58.17-8.38,58.17-16.88-9.24-32.79-14.82-47.35-17.92,4.3,29.09,14.46,53.13,14.46,53.13-27.7-19.46-58.61-4.4-58.61-4.4Z"/><path class="cls-4" d="M555.14,805.63c11.32-24.5,17.18-47.16,19.6-67.48-44.93-.49-73.14,15.73-73.14,15.73,17.94-35.51,9.97-80.2,9.97-80.2,16.59,16.17,39.84,23.8,63.94,26.66-3.47-42.15-20.36-67.39-20.36-67.39,36.65,15.47,76.05,9.37,76.05,9.37-13.89,16.35-19.67,37.5-20.92,59.27,40.07-1.45,74.46-11.44,74.46-11.44-27.64,34.14-10.87,75.49-10.87,75.49-21.9-12-42.55-19.23-61.44-23.26,5.58,37.75,18.77,68.94,18.77,68.94-35.94-25.25-76.05-5.7-76.05-5.7Z"/><path class="cls-8" d="M138.25,1650.82s.05-.04,.07-.06c2.97-2.36,7.56-5.96,13.74-10.63v-40.01s.05-.02,.07-.03c1.75-.66,3.49-1.28,5.26-1.98v38.01s.05-.04,.07-.05c4-2.98,8.48-6.28,13.42-9.86v-33.71s.05-.02,.07-.03c1.75-.76,3.5-1.49,5.26-2.26v32.17s.05-.04,.07-.05c4.2-3,8.66-6.15,13.42-9.46v-28.74s.05-.02,.07-.03c1.75-.81,3.51-1.62,5.26-2.44v27.53s.05-.03,.07-.05c4.28-2.94,8.75-5.98,13.43-9.1v-24.64s.05-.02,.07-.03c1.76-.82,3.51-1.62,5.26-2.44v23.56s.05-.03,.07-.05c4.32-2.86,8.8-5.79,13.42-8.76v-20.91s.05-.02,.07-.03c1.76-.79,3.51-1.58,5.27-2.35v19.87s.05-.03,.07-.04c4.36-2.78,8.83-5.6,13.42-8.45v-17.12s.05-.02,.07-.03c1.75-.73,3.52-1.5,5.27-2.19v16.04s.05-.03,.07-.04c4.37-2.69,8.86-5.4,13.42-8.14v-12.87s.05-.02,.07-.03c.81-.28,1.64-.63,2.45-.9,.91-.31,1.85-.68,2.82-1.08v11.69s.05-.03,.07-.04c4.39-2.6,8.87-5.21,13.42-7.84v-10.46s.05-.02,.07-.04c1.76-.91,3.52-1.8,5.27-2.64v10.08s.05-.03,.07-.04c4.4-2.51,8.88-5.03,13.43-7.54v-3.71s.05-.02,.07-.03c1.79-.6,3.55-1.27,5.26-2.03v2.83s.05-.03,.07-.04c4.41-2.41,8.89-4.83,13.42-7.24v-2.27s.05-.02,.07-.03c1.73-.85,3.48-1.63,5.26-2.36v1.84s.05-.03,.07-.04c1.27-.67,2.58-1.33,3.86-2,0,.01,.02,.02,.02,.03,.77,1.41,1.77,2.05,5.25,1.56-7.65,3.43-19.63,7.46-26.79,12l1.48,3.31c8.15-2.32,18.64-9.67,26.79-12,.49,1.11,1.48,3.32,1.98,4.43,.49,1.1,4.32-.61,8.15-2.32-3.82,1.71-11.48,5.14-15.31,6.85,.49,1.1,1.48,3.32,1.98,4.42,.49,1.11,4.32-.6,8.15-2.32,.99,2.21,5.81,2.71,2.48,5.53-3.83,1.71-7.65,3.43-11.48,5.14,11.28-4.1,19.6-4.18,24.01-2.7,2.09-.41,4.05-.52,5.78-.15-1.08,.48-2.17,.97-3.25,1.45l.87,1.06c-1.22,.17-1.96,.57-2.51,1.05,9.94-3.14,18.48-9.42,28.35-12.74,.99,2.21,1.48,3.32,5.81,2.71-7.65,3.43-19.63,7.46-26.79,12l.16,.35c3.33-.07,5.62,.27,5.86,1.28,7.27-3.12,15.55-8.4,22.26-10.31,.49,1.11,1.48,3.32,1.98,4.43,.5,1.11,4.32-.61,8.15-2.32-3.82,1.71-11.48,5.14-15.31,6.85,.49,1.1,1.48,3.32,1.98,4.42,.5,1.11,4.32-.6,8.15-2.32,.99,2.21,5.81,2.71,2.48,5.53-3.83,1.71-7.65,3.43-11.48,5.14,15.8-5.75,25.93-3.65,27.42-.33-4.33,.61-2.84,3.93-7.16,4.53,12.96-1.82,26.42-2.54,11.61,5.41-13.42,6.41-26.97,12.73-40.53,19.03l.39,.86c8.15-2.32,18.64-9.67,26.79-12,.5,1.11,1.48,3.32,1.98,4.42,.5,1.1,4.32-.61,8.15-2.32-3.82,1.71-11.48,5.14-15.31,6.85,.5,1.1,1.48,3.32,1.98,4.42,.5,1.11,4.32-.6,8.15-2.32,.99,2.21,5.81,2.71,2.48,5.53-3.83,1.72-7.65,3.43-11.48,5.14,4-1.46,7.63-2.4,10.85-2.96,.62-.21,1.26-.48,1.88-.69,11.98-4.04,29.12-17.03,39.25-14.93-3.82,1.71-7.65,3.43-11.48,5.14,12.96-1.82,22.96-10.28,34.93-14.31,.99,2.21,1.49,3.32,5.81,2.71-7.65,3.43-19.63,7.46-26.79,12l1.48,3.31c8.15-2.32,18.64-9.67,26.79-12,.5,1.11,1.48,3.32,1.98,4.42,.5,1.1,4.32-.61,8.15-2.32-3.82,1.71-11.48,5.14-15.31,6.85,.5,1.1,1.48,3.32,1.98,4.42,.5,1.11,4.32-.6,8.15-2.32,.99,2.21,5.81,2.71,2.47,5.53-3.83,1.72-7.65,3.43-11.48,5.14,15.8-5.75,25.93-3.65,27.42-.33-4.33,.61-2.84,3.93-7.16,4.53,12.96-1.82,26.42-2.54,11.61,5.41-5.54,2.64-11.16,5.22-16.72,7.85l.53,1.18c.5,1.11,4.32-.6,8.15-2.32,.99,2.21,5.81,2.71,2.47,5.53-3.83,1.72-7.65,3.43-11.48,5.14,15.81-5.75,25.93-3.65,27.42-.33-4.33,.61-2.84,3.93-7.16,4.53,12.96-1.82,26.42-2.54,11.61,5.41-5.65,2.7-11.38,5.33-17.06,8.01,.52,1.16,1.19,2.67,1.58,3.53,.5,1.11,4.32-.61,8.15-2.32-3.82,1.71-11.48,5.14-15.31,6.85,.5,1.11,1.48,3.32,1.98,4.42,.5,1.11,4.32-.6,8.15-2.32,.99,2.21,5.81,2.71,2.47,5.53-3.83,1.72-7.65,3.43-11.48,5.14,15.8-5.75,25.93-3.65,27.42-.33-4.33,.61-2.84,3.93-7.16,4.53,12.96-1.82,26.42-2.54,11.61,5.41-33.59,16.05-67.65,31.71-101.99,47.09l.42,.05c-3.82,1.71-7.65,3.43-11.48,5.14,12.96-1.82,22.96-10.28,34.93-14.31,.99,2.21,1.48,3.32,5.81,2.71-7.65,3.43-19.63,7.46-26.79,12l1.49,3.31c8.15-2.32,18.64-9.67,26.79-12,.5,1.11,1.49,3.32,1.98,4.42,.5,1.1,4.32-.61,8.15-2.32-3.82,1.71-11.48,5.14-15.31,6.85,.5,1.1,1.49,3.32,1.98,4.42,.5,1.11,4.32-.6,8.15-2.32,.99,2.21,5.81,2.71,2.47,5.53-3.83,1.72-7.65,3.43-11.48,5.14,15.8-5.75,25.93-3.65,27.42-.33-4.33,.61-2.84,3.93-7.16,4.53,12.96-1.82,26.42-2.54,11.61,5.41-16.71,7.98-33.54,15.87-50.46,23.68l1.19,2.65c8.15-2.32,18.64-9.67,26.79-12,.5,1.11,1.49,3.32,1.98,4.42,.5,1.1,4.32-.61,8.15-2.32-3.82,1.71-11.48,5.14-15.31,6.85,.5,1.1,1.49,3.32,1.98,4.42,.5,1.11,4.32-.6,8.15-2.32,.99,2.21,5.81,2.71,2.47,5.53-3.83,1.72-7.65,3.43-11.48,5.14,15.8-5.75,25.93-3.65,27.42-.33-4.33,.61-2.84,3.93-7.16,4.53,12.96-1.82,26.42-2.54,11.61,5.41-15.63,7.47-31.37,14.84-47.18,22.15h-196.2c29.65-16.45,58.91-33.46,86.94-51.74,6.8-5.38-1.21-6.31-8.6-6.19,2.46-.04,.63-3.18,3.1-3.22-1.84-3.14-8.6-6.19-16.63-2.9,1.85-1.09,3.7-2.17,5.56-3.25,1.24-2.13-1.83-3.14-3.06-5.23-1.86,1.09-3.71,2.17-4.32,1.12-.61-1.04-1.83-3.13-2.45-4.18,1.85-1.08,5.56-3.25,7.42-4.34-.73,.42-1.44,.82-2.09,1.11,17.67-10.3,35.09-20.88,52.05-31.93,6.8-5.38-1.2-6.31-8.6-6.19,2.46-.04,.63-3.18,3.1-3.22-1.83-3.14-8.6-6.19-16.63-2.9,1.85-1.09,3.71-2.17,5.56-3.25,1.24-2.13-1.83-3.14-3.05-5.23-1.86,1.09-3.71,2.17-4.32,1.12-.61-1.04-1.83-3.14-2.45-4.18,1.85-1.09,5.56-3.25,7.41-4.34-1.85,1.08-3.7,2.17-4.32,1.12-.61-1.04-1.83-3.14-2.45-4.19-4.32,1.13-8.65,6.47-12.97,7.6l-1.84-3.13c3.1-3.22,9.27-5.43,12.98-7.6-2.47,.04-3.08-1-4.31-3.1-6.17,2.2-9.9,8.6-17.29,8.71,1.85-1.09,3.7-2.17,5.56-3.25-5.61-2.53-11.24,3.59-16.52,7.03-2.14-.76-5.74-.94-9.21-.89,2.46-.04,.63-3.18,3.1-3.22-1.83-3.14-8.6-6.19-16.63-2.9,1.86-1.09,3.71-2.17,5.56-3.25,1.24-2.13-1.84-3.14-3.06-5.23-1.86,1.09-3.71,2.17-4.32,1.12-.61-1.04-1.83-3.14-2.45-4.18,1.85-1.09,5.56-3.25,7.42-4.34-1.85,1.08-3.71,2.17-4.32,1.13-.61-1.05-1.84-3.14-2.45-4.19-4.32,1.13-8.66,6.47-12.98,7.6l-1.83-3.13c3.1-3.22,9.27-5.42,12.97-7.6-2.47,.04-3.08-1-4.3-3.1-6.17,2.2-9.89,8.6-17.29,8.71,1.85-1.09,3.71-2.17,5.56-3.25-.61-.28-1.23-.35-1.84-.43,27.44-15.34,54.5-31.2,80.49-48.15,6.8-5.38-1.2-6.31-8.6-6.19,2.46-.04,.63-3.17,3.1-3.21-1.83-3.14-8.6-6.19-16.63-2.9,1.85-1.09,3.71-2.17,5.56-3.25,1.24-2.13-1.83-3.14-3.05-5.23-1.86,1.09-3.71,2.17-4.32,1.12-.61-1.04-1.83-3.13-2.45-4.18,1.85-1.09,5.56-3.25,7.41-4.34-1.85,1.08-3.71,2.17-4.32,1.12-.61-1.04-1.84-3.14-2.45-4.18-4.32,1.13-8.65,6.47-12.97,7.59l-1.84-3.13c3.1-3.22,9.27-5.42,12.98-7.59-2.47,.04-3.08-1-4.31-3.1-6.17,2.2-9.89,8.6-17.29,8.71,1.85-1.09,3.7-2.17,5.56-3.25-6.76-3.06-13.58,6.55-19.76,8.76-20.38,7.29-40.16,24.91-60.53,32.62-24.68,8.83-48.78,22.94-71.02,35.95,1.22,2.09,4.91,4.14,3.67,6.27-1.17,1.56-1.91,2.95-2.45,4.25-10.38-12-21.33-17.34-22.98-18.1-.02,0-.05-.02-.06-.03h-.03s-.09-.05-.09-.05l-.06-.03h0s-.05-.07-.09-.09c-.3-.16-.54-.41-.76-.67-.13-.15-.23-.3-.32-.47-.07-.14-.09-.31-.14-.46-.07-.23-.21-.44-.21-.7v-44.48s.05-.02,.07-.03c1.75-.62,3.51-1.24,5.26-1.84v45.66Z"/><path class="cls-10" d="M302.7,1535.43s.05,0,.07,0c1.43-.15,2.79-.13,4.03,.13-1.34,.6-2.69,1.2-4.03,1.8-.02,.01-.05,.02-.07,.03v-1.96Z"/><path class="cls-11" d="M777,1645.4c-.36-1.78-.74-3.56-1.15-5.31,.41,1.75,.79,3.52,1.15,5.31Z"/><path class="cls-11" d="M775.16,1637.26c-.42-1.67-.87-3.32-1.34-4.96,.47,1.64,.92,3.29,1.34,4.96Z"/><path class="cls-11" d="M684.82,1815.77c.58-1.06,1.74-3.19,2.32-4.25,.58-1.06-1.63-2.27-3.85-3.49,2.21,1.21,6.65,3.64,8.86,4.85,.58-1.06,1.75-3.19,2.32-4.25,.58-1.07-1.63-2.28-3.85-3.49,1.16-2.12,.11-5.46,2.9-5.31,2.22,1.21,4.43,2.43,6.65,3.64-8.28-5.91-9.81-13.65-8.07-16.84,1.64,2.28,3.38-.91,5.01,1.36-2.73-3.79-5.27-7.91-5.36-10.17-6.34-2.79-13.9-5.27-15.02-10.97,2.21,1.21,4.43,2.42,6.64,3.63-4.9-6.83-13.29-7.27-19.35-11.97,1.16-2.13,1.74-3.19,.11-5.47,4.43,2.43,10.49,7.12,15.51,8.48l1.74-3.18c-3.85-3.49-11.66-5-15.51-8.48,.58-1.07,1.74-3.19,2.32-4.25,.58-1.06-1.63-2.27-3.85-3.48,2.21,1.21,6.65,3.63,8.86,4.85,.58-1.06,1.74-3.19,2.32-4.25,.58-1.07-1.63-2.28-3.85-3.49,1.16-2.12,.11-5.46,2.9-5.31,2.22,1.21,4.43,2.42,6.65,3.63-1.97-1.41-3.54-2.93-4.8-4.46-1.68-.8-3.3-1.69-4.78-2.83,1.16-2.13,1.74-3.19,.11-5.47l.94,.54c-.3-1.89-.13-3.54,.46-4.62l.53,.53c.5-.91,1.21-2.22,1.76-3.22-.69-1.12-1.29-2.19-1.74-3.17-.55-.33-1.14-.65-1.74-.98,.47,.26,1.08,.59,1.71,.94-1.73-3.75-1.3-6.06,4.7-3.66,1.53,.75,3.04,1.56,4.57,2.32-.59-.8-2.09-1.64-3.64-2.5,1.16-2.12,.11-5.46,2.91-5.31,2.22,1.21,4.43,2.42,6.65,3.63-8.28-5.91-9.81-13.65-8.07-16.84,1.64,2.28,3.38-.91,5.01,1.36-1.37-1.9-2.68-3.88-3.67-5.67-2.75-1.66-4.87-3.67-5.42-6.46,1.25,.68,2.49,1.36,3.74,2.04-.03-.5,.05-.91,.27-1.21-4.93-4.23-11.63-5.23-16.72-9.17,1.16-2.13,1.74-3.19,.11-5.47,4.43,2.43,10.49,7.12,15.51,8.48l1.74-3.18c-3.85-3.49-11.66-5-15.51-8.48,.58-1.07,1.74-3.19,2.32-4.25,.58-1.06-1.63-2.27-3.85-3.48,2.21,1.21,6.65,3.63,8.86,4.85,.58-1.06,1.74-3.19,2.32-4.25,.58-1.07-1.63-2.28-3.85-3.49,.44-.81,.56-1.79,.7-2.69-4.63-2.08-8.8-4.51-9.61-8.62,2.21,1.21,4.43,2.42,6.64,3.63-4.9-6.82-13.29-7.27-19.35-11.97,1.16-2.13,1.75-3.19,.11-5.47,4.43,2.42,10.49,7.12,15.51,8.48l1.74-3.19c-3.85-3.49-11.66-5-15.51-8.48,.58-1.06,1.75-3.19,2.33-4.25,.58-1.06-1.64-2.27-3.85-3.49,2.21,1.21,6.65,3.64,8.86,4.85,.58-1.06,1.74-3.19,2.32-4.25,.58-1.07-1.63-2.28-3.85-3.49,1.16-2.12,.11-5.46,2.9-5.31,2.22,1.21,4.43,2.43,6.65,3.64-8.28-5.91-9.81-13.65-8.07-16.84,1.64,2.28,3.38-.91,5.01,1.36-4.9-6.82-9.22-14.71,.21-10.92,8.97,4.43,17.9,9.01,26.82,13.65,.24-1.62,.39-3.08,2.26-2.98,2.22,1.21,4.43,2.42,6.65,3.63-8.28-5.91-9.81-13.65-8.07-16.83,1.64,2.28,3.38-.91,5.01,1.36-4.09-5.68-7.73-12.08-3.39-11.88-3.67-1.69-7.54-3-10.77-5.5,1.16-2.13,1.74-3.19,.11-5.47,4.43,2.42,10.49,7.12,15.51,8.48l1.74-3.18c-3.85-3.49-11.66-5-15.51-8.48,.58-1.07,1.74-3.19,2.32-4.25s-1.63-2.27-3.85-3.48c2.21,1.21,6.65,3.63,8.86,4.85,.58-1.06,1.75-3.19,2.32-4.25,.58-1.07-1.63-2.28-3.85-3.49,.55-1,.61-2.27,.81-3.31-7.49-4.1-14.67-8.38-20.9-13.21-6.07-4.7-19.47-6.5-20.99-14.24,2.21,1.21,4.43,2.42,6.64,3.63-4.9-6.82-13.29-7.27-19.36-11.97,1.16-2.13,1.75-3.19,.11-5.47,4.43,2.42,10.49,7.12,15.51,8.48l1.74-3.19c-3.85-3.49-11.66-5-15.51-8.48,.58-1.07,1.75-3.19,2.33-4.25,.58-1.06-1.64-2.27-3.85-3.48,2.21,1.21,6.65,3.63,8.86,4.85,.58-1.06,1.75-3.19,2.32-4.25,.58-1.07-1.63-2.28-3.85-3.49,1.16-2.12,.11-5.46,2.91-5.31,2.22,1.21,4.43,2.42,6.65,3.63-8.28-5.91-9.81-13.65-8.06-16.83,1.64,2.28,3.38-.91,5.01,1.36-4.9-6.82-9.23-14.71,.22-10.92,12.31,6.09,24.57,12.45,36.8,18.91l1.02-1.86c-3.85-3.49-11.66-5-15.51-8.48,.58-1.07,1.75-3.19,2.33-4.25,.58-1.06-1.63-2.27-3.85-3.48,2.21,1.21,6.65,3.63,8.86,4.85,.58-1.06,1.75-3.19,2.32-4.25,.58-1.07-1.63-2.28-3.85-3.49,1.16-2.12,.11-5.46,2.91-5.31,2.22,1.21,4.43,2.42,6.65,3.63-7.59-5.41-9.47-12.31-8.4-15.89l68.62,50.33-35.64-26.14c-4.42-2.3-8.86-4.51-13.3-6.6-8.04-2.92-4.71,4.35-.81,10.54-1.3-2.07-3.01,1.14-4.31-.92-1.71,3.21-.81,10.54,6.1,15.6-1.87-1-3.74-1.99-5.61-2.99-2.44,.07-1.71,3.21-2.84,5.35,1.87,1,3.74,1.99,3.17,3.06-.57,1.07-1.71,3.21-2.28,4.27-1.87-.99-5.61-2.99-7.48-3.98,1.87,.99,3.74,1.99,3.17,3.06-.57,1.07-1.71,3.21-2.28,4.28,3.17,3.06,9.92,3.9,13.09,6.97l-1.7,3.2c-4.31-.92-9.35-4.98-13.09-6.97,1.3,2.07,.73,3.13-.41,5.28,5.04,4.06,12.36,3.83,16.26,10.02-1.87-.99-3.74-1.99-5.61-2.98,.89,7.34,12.52,8.03,17.56,12.09,10.4,8.37,24.08,30.66,37.03,37.23l.97,.83c-1.87-.99-3.74-1.99-5.61-2.99-2.44,.07-1.71,3.21-2.84,5.35,1.87,1,3.74,1.99,3.17,3.06-.57,1.07-1.71,3.21-2.27,4.27-1.87-.99-5.61-2.99-7.48-3.98,1.36,.73,2.7,1.45,3.12,2.2-1.44-.68-2.86-1.42-4.3-2.09-8.05-2.91-4.71,4.35-.81,10.54-1.3-2.07-3.01,1.14-4.31-.92-1.71,3.21-.81,10.54,6.1,15.59-1.87-1-3.74-1.99-5.61-2.99-2.44,.07-1.71,3.21-2.84,5.34,1.87,1,3.74,1.99,3.17,3.06-.57,1.07-1.71,3.21-2.27,4.28-1.87-1-5.61-2.99-7.48-3.98,1.87,1,3.74,1.99,3.17,3.06-.57,1.07-1.71,3.21-2.28,4.28,3.17,3.06,9.92,3.91,13.09,6.97l-1.71,3.2c-4.31-.92-9.35-4.98-13.09-6.97,1.3,2.07,.73,3.14-.41,5.28,5.04,4.06,12.36,3.83,16.25,10.03-1.87-1-3.74-1.99-5.61-2.99,.48,3.91,4.01,5.92,7.96,7.57,.93,2.76,2.83,5.69,6.13,8.11-1.87-.99-3.74-1.99-5.61-2.99-2.44,.07-1.71,3.21-2.84,5.35,1.87,1,3.74,1.99,3.17,3.06-.57,1.07-1.71,3.21-2.27,4.28-1.87-.99-5.61-2.99-7.48-3.98,1.87,1,3.74,1.99,3.17,3.06-.57,1.07-1.71,3.21-2.28,4.28,3.17,3.06,9.92,3.9,13.09,6.97l-1.71,3.21c-4.31-.92-9.35-4.98-13.09-6.97,1.3,2.07,.73,3.13-.4,5.28,5.04,4.05,12.36,3.83,16.25,10.02-1.87-.99-3.74-1.99-5.61-2.98,.89,7.34,12.52,8.03,17.56,12.09,1.77,1.43,3.69,2.76,5.63,4.07-.13,.65-.3,1.3-.61,1.88,1.87,1,3.74,1.99,3.17,3.06-.57,1.07-1.71,3.21-2.27,4.28-1.87-1-5.61-2.99-7.48-3.98,1.87,.99,3.74,1.99,3.17,3.06-.57,1.07-1.71,3.21-2.28,4.28,1.98,1.91,5.35,2.96,8.38,4.22,.59,1.08,1.22,2.18,1.9,3.26-1.3-2.07-3.01,1.14-4.31-.92l-.39,1.06c-2.6-1.51-5.16-3.28-7.28-4.41,1.3,2.07,.73,3.14-.41,5.28,2.25,1.81,4.95,2.77,7.6,3.83,.63,3.22,2.57,6.91,6.58,9.84-1.87-1-3.74-1.99-5.61-2.99-2.44,.07-1.71,3.21-2.84,5.34,1.87,1,3.74,1.99,3.17,3.06-.57,1.07-1.71,3.21-2.27,4.27-1.87-1-5.61-2.99-7.48-3.98,1.87,.99,3.74,1.99,3.17,3.06-.57,1.07-1.71,3.21-2.28,4.28,3.17,3.06,9.92,3.91,13.09,6.97l-1.71,3.2c-4.31-.92-9.35-4.98-13.09-6.97,1.3,2.07,.73,3.14-.41,5.28,5.04,4.06,12.36,3.83,16.25,10.03-1.87-1-3.74-1.99-5.61-2.99,.45,3.65,3.55,5.65,7.17,7.25,.94-2.7,1.81-5.44,2.63-8.2-10.51,35.21-30.22,65.7-58.93,80.24h-14.27s1.67-3.05,1.67-3.05c-3.85-3.49-11.66-5-15.51-8.49Z"/><path class="cls-11" d="M770.54,1622.17c-.88-2.39-1.8-4.75-2.79-7.03,.99,2.29,1.92,4.64,2.79,7.03Z"/><path class="cls-11" d="M773.01,1629.54c-.53-1.71-1.09-3.39-1.67-5.06,.58,1.67,1.15,3.35,1.67,5.06Z"/><path class="cls-10" d="M160.08,1667.86c1.24-2.13-2.45-4.18-3.67-6.27,22.24-13.02,46.33-27.12,71.02-35.95,20.37-7.71,40.16-25.33,60.53-32.62,6.17-2.21,12.99-11.82,19.76-8.76-1.85,1.08-3.7,2.17-5.56,3.25,7.39-.11,11.12-6.51,17.29-8.71,1.23,2.09,1.84,3.14,4.31,3.1-3.71,2.17-9.88,4.38-12.98,7.59l1.84,3.13c4.32-1.13,8.65-6.47,12.97-7.59,.61,1.04,1.84,3.14,2.45,4.18,.61,1.04,2.46-.04,4.32-1.12-1.85,1.08-5.56,3.25-7.41,4.34,.61,1.04,1.84,3.14,2.45,4.18,.61,1.05,2.46-.03,4.32-1.12,1.22,2.09,4.3,3.1,3.05,5.23-1.85,1.08-3.7,2.17-5.56,3.25,8.03-3.29,14.79-.24,16.63,2.9-2.47,.04-.63,3.17-3.1,3.21,7.4-.11,15.4,.81,8.6,6.19-25.99,16.95-53.06,32.81-80.49,48.15,.61,.08,1.22,.15,1.84,.43-1.85,1.08-3.71,2.17-5.56,3.25,7.4-.11,11.12-6.51,17.29-8.71,1.22,2.09,1.83,3.14,4.3,3.1-3.71,2.17-9.88,4.38-12.97,7.6l1.83,3.13c4.32-1.13,8.65-6.47,12.98-7.6,.61,1.05,1.83,3.14,2.45,4.19,.61,1.04,2.46-.04,4.32-1.13-1.85,1.08-5.56,3.25-7.42,4.34,.61,1.04,1.84,3.14,2.45,4.18,.61,1.04,2.46-.04,4.32-1.12,1.22,2.09,4.3,3.1,3.06,5.23-1.86,1.09-3.71,2.17-5.56,3.25,8.03-3.29,14.79-.24,16.63,2.9-2.47,.04-.63,3.17-3.1,3.22,3.47-.06,7.07,.13,9.21,.89,5.28-3.44,10.92-9.57,16.52-7.03-1.85,1.08-3.7,2.17-5.56,3.25,7.39-.11,11.12-6.51,17.29-8.71,1.23,2.09,1.84,3.14,4.31,3.1-3.71,2.17-9.88,4.38-12.98,7.6l1.84,3.13c4.32-1.13,8.65-6.47,12.97-7.6,.62,1.05,1.84,3.14,2.45,4.19,.61,1.04,2.47-.04,4.32-1.12-1.85,1.08-5.56,3.25-7.41,4.34,.61,1.04,1.84,3.14,2.45,4.18,.61,1.04,2.46-.04,4.32-1.12,1.22,2.09,4.3,3.1,3.05,5.23-1.85,1.08-3.7,2.17-5.56,3.25,8.03-3.29,14.79-.24,16.63,2.9-2.47,.04-.63,3.17-3.1,3.22,7.4-.12,15.4,.81,8.6,6.19-16.96,11.06-34.38,21.64-52.05,31.93,.65-.3,1.36-.69,2.09-1.11-1.85,1.08-5.56,3.26-7.42,4.34,.61,1.04,1.84,3.14,2.45,4.18,.62,1.05,2.47-.03,4.32-1.12,1.22,2.09,4.3,3.1,3.06,5.23-1.86,1.09-3.71,2.17-5.56,3.25,8.03-3.29,14.79-.24,16.63,2.9-2.47,.04-.63,3.18-3.1,3.22,7.39-.12,15.4,.81,8.6,6.19-28.03,18.28-57.3,35.29-86.94,51.74h-45.09s-.01,0-.01,0c0,0-.4-.21-.97-.51-.09-.05-.22-.12-.32-.18-.38-.21-.79-.46-1.33-.78-.44-.26-.92-.57-1.45-.91-.32-.21-.64-.43-1-.67-.62-.42-1.29-.89-1.99-1.41-.36-.27-.72-.54-1.1-.84-.76-.58-1.56-1.23-2.38-1.92-.4-.33-.79-.67-1.19-1.03-.86-.76-1.75-1.58-2.64-2.46-.41-.4-.82-.8-1.24-1.23-.92-.94-1.86-1.96-2.79-3.03-.42-.48-.84-.95-1.26-1.45-.94-1.13-1.87-2.35-2.8-3.6-.28-.38-.57-.7-.86-1.1,.01,0,.02-.01,.04-.02,3.21-1.58,5.97-3.08,6.99-4.48,7.46-5.23-.3-2.96-9.54,.63-.01,0-.03,.01-.04,.02-.33-.53-.62-1.15-.94-1.7,2.65-1.39,5.31-2.78,7.99-4.1-1.54-1.5-3.34-2.85-3.33-5.27,.01-4.22,8.65-6.47,9.28-9.64,4.35-5.35-5.54-.96-11.1,2.29,.63-3.18-3.71,2.17-4.93,.08-1.72-2.95-3.39-5.92-2.3-10.02-1.63,.88-3.26,1.74-4.9,2.62-.5-2.28-1.02-4.55-1.37-7.01,.02-.01,.04-.02,.06-.03,4.67-2.25,9.36-4.37,10.76-6.31l.02-.02c-3.68,1.56-7.34,3.12-11.02,4.67-.02,0-.04,.02-.07,.03-1-8.09-1.1-17.14,.07-27.25,.29-2.53,.47-4.97,.6-7.37,.03-.64,.06-1.28,.08-1.91,.07-2.03,.1-4.02,.06-5.96,0-.33,0-.67,0-1-.07-2.25-.21-4.44-.42-6.56-.04-.44-.1-.86-.14-1.29-.2-1.84-.45-3.64-.75-5.39-.05-.3-.1-.61-.15-.92-.38-2.06-.81-4.07-1.3-6-.02-.09-.05-.18-.07-.27-.49-1.88-1.04-3.7-1.63-5.46-.05-.16-.11-.32-.16-.48-1.27-3.72-2.75-7.17-4.38-10.36,0-.01-.01-.02-.02-.03,2.58-2.31,6.91-4.09,7.35-6.32,4.06-4.99-4.29-1.51-9.94,1.63,0,0,0,0,0,0-1.23-2.05-2.52-3.97-3.83-5.78h0c-1.32-1.8-2.67-3.49-4.03-5.06,0,0,0,0,0,0,.54-1.3,1.29-2.7,2.45-4.25Z"/><path class="cls-7" d="M762.05,1748.02c1.87,1,3.74,1.99,5.61,2.99-3.9-6.2-11.22-5.97-16.25-10.03,1.14-2.14,1.71-3.21,.41-5.28,3.74,1.99,8.78,6.05,13.09,6.97l1.71-3.2c-3.17-3.06-9.92-3.91-13.09-6.97,.57-1.07,1.71-3.21,2.28-4.28,.57-1.07-1.3-2.06-3.17-3.06,1.87,.99,5.61,2.99,7.48,3.98,.57-1.07,1.71-3.21,2.27-4.27,.57-1.07-1.3-2.07-3.17-3.06,1.14-2.14,.41-5.27,2.84-5.34,1.87,1,3.74,1.99,5.61,2.99-4.01-2.93-5.95-6.62-6.58-9.84-2.65-1.05-5.35-2.02-7.6-3.83,1.14-2.14,1.71-3.21,.41-5.28,2.13,1.14,4.68,2.9,7.28,4.41l.39-1.06c1.3,2.07,3.01-1.14,4.31,.92-.68-1.08-1.31-2.18-1.9-3.26-3.03-1.26-6.4-2.31-8.38-4.22,.57-1.07,1.71-3.21,2.28-4.28,.57-1.07-1.3-2.07-3.17-3.06,1.87,.99,5.61,2.99,7.48,3.98,.57-1.07,1.71-3.21,2.27-4.28,.57-1.07-1.3-2.07-3.17-3.06,.31-.58,.48-1.23,.61-1.88-1.95-1.31-3.86-2.64-5.63-4.07-5.04-4.06-16.67-4.75-17.56-12.09,1.87,.99,3.74,1.99,5.61,2.98-3.9-6.2-11.22-5.97-16.25-10.02,1.14-2.14,1.71-3.21,.4-5.28,3.74,1.99,8.78,6.05,13.09,6.97l1.71-3.21c-3.17-3.06-9.92-3.91-13.09-6.97,.57-1.07,1.71-3.21,2.28-4.28,.57-1.07-1.3-2.06-3.17-3.06,1.87,1,5.61,2.99,7.48,3.98,.57-1.07,1.71-3.21,2.27-4.28,.57-1.07-1.3-2.07-3.17-3.06,1.14-2.14,.41-5.27,2.84-5.35,1.87,1,3.74,1.99,5.61,2.99-3.3-2.42-5.2-5.35-6.13-8.11-3.95-1.65-7.48-3.67-7.96-7.57,1.87,1,3.74,1.99,5.61,2.99-3.9-6.2-11.22-5.97-16.25-10.03,1.14-2.14,1.71-3.21,.41-5.28,3.74,1.99,8.78,6.05,13.09,6.97l1.71-3.2c-3.17-3.06-9.92-3.91-13.09-6.97,.57-1.07,1.71-3.21,2.28-4.28,.57-1.07-1.3-2.06-3.17-3.06,1.87,1,5.61,2.99,7.48,3.98,.57-1.07,1.71-3.21,2.27-4.28,.57-1.07-1.3-2.07-3.17-3.06,1.14-2.14,.41-5.27,2.84-5.34,1.87,1,3.74,1.99,5.61,2.99-6.91-5.05-7.81-12.39-6.1-15.59,1.3,2.07,3.01-1.14,4.31,.92-3.9-6.19-7.23-13.46,.81-10.54,1.44,.68,2.86,1.41,4.3,2.09-.42-.75-1.76-1.48-3.12-2.2,1.87,1,5.61,2.99,7.48,3.98,.57-1.07,1.71-3.21,2.27-4.27,.57-1.07-1.3-2.07-3.17-3.06,1.14-2.14,.41-5.27,2.84-5.35,1.87,1,3.74,1.99,5.61,2.99l-.97-.83c-12.95-6.57-26.64-28.86-37.03-37.23-5.04-4.05-16.67-4.75-17.56-12.09,1.87,1,3.74,1.99,5.61,2.98-3.9-6.19-11.22-5.97-16.26-10.02,1.14-2.14,1.71-3.21,.41-5.28,3.74,1.99,8.78,6.05,13.09,6.97l1.7-3.2c-3.17-3.07-9.92-3.91-13.09-6.97,.57-1.07,1.71-3.21,2.28-4.28,.57-1.07-1.3-2.06-3.17-3.06,1.87,.99,5.61,2.99,7.48,3.98,.57-1.07,1.71-3.21,2.28-4.27,.57-1.07-1.3-2.07-3.17-3.06,1.14-2.14,.41-5.27,2.84-5.35,1.87,1,3.74,1.99,5.61,2.99-6.91-5.05-7.8-12.39-6.1-15.6,1.3,2.07,3.01-1.14,4.31,.92-3.9-6.2-7.23-13.46,.81-10.54,4.44,2.09,8.88,4.31,13.3,6.6l35.64,26.14s-.05,.26-.12,.74c-1.07,6.69-8.18,58.8,18.76,120.89,.99,2.29,1.92,4.64,2.79,7.03,.28,.76,.53,1.54,.8,2.31,.58,1.67,1.15,3.35,1.67,5.06,.28,.91,.54,1.83,.81,2.75,.47,1.64,.92,3.29,1.34,4.96,.24,.94,.47,1.88,.69,2.83,.41,1.75,.79,3.52,1.15,5.31,.18,.88,.36,1.75,.53,2.63,.4,2.15,.76,4.33,1.08,6.53,.08,.52,.17,1.03,.24,1.55,.39,2.8,.73,5.63,1,8.49,.03,.27,.04,.54,.06,.8,.23,2.54,.42,5.1,.56,7.68,.04,.73,.06,1.47,.09,2.21,.09,2.14,.16,4.3,.19,6.46,.01,.82,.01,1.65,.02,2.48,0,2.14-.02,4.29-.08,6.44-.02,.77-.04,1.53-.07,2.3-.09,2.4-.22,4.81-.39,7.22-.03,.48-.06,.96-.09,1.44-.46,6.01-1.15,12.01-2.09,17.97-.02,.14-.05,.29-.07,.43-.44,2.75-.94,5.49-1.48,8.22-.1,.51-.21,1.02-.32,1.53-.49,2.39-1.03,4.77-1.6,7.13-.14,.58-.28,1.15-.43,1.72-.6,2.38-1.25,4.75-1.93,7.1-.13,.45-.26,.9-.39,1.35-.82,2.76-1.7,5.5-2.63,8.2-3.62-1.59-6.72-3.6-7.17-7.25Z"/><path class="cls-6" d="M449.55,324.6c.97,24.16,2.3,48.36,3.8,72.56-41.57,8.75-87.95,23.64-139.28,47.04-.21,.1-.42,.18-.63,.28,0,0,78.33-134.45,98.21-239.68l.46,.05,35.11,4c-.02,38.39,.79,77.1,2.33,115.75Z"/><path class="cls-6" d="M469.29,572.18h0c10.61,93.07,24.71,186,42.86,278.2h0c-5.53,.3-11.14,.69-16.8,1.14-.81,.06-1.63,.14-2.44,.2-4.95,.41-9.95,.87-15,1.4-1.06,.11-2.12,.22-3.19,.34-5.03,.54-10.12,1.15-15.26,1.81-.94,.12-1.88,.23-2.83,.36-6,.8-12.07,1.66-18.22,2.62,0,0-.02,0-.03,0-12.57,1.97-25.45,4.31-38.62,7.02-1.36,.28-2.73,.59-4.1,.87-5.03,1.06-10.09,2.17-15.21,3.34-1.9,.44-3.8,.89-5.71,1.34-4.71,1.11-9.46,2.28-14.24,3.49-2.06,.52-4.11,1.04-6.18,1.58-4.89,1.28-9.84,2.62-14.81,4-1.9,.53-3.79,1.04-5.7,1.58-6.14,1.75-12.33,3.58-18.58,5.49-.72,.22-1.43,.42-2.16,.64-7.05,2.17-14.18,4.46-21.38,6.85-1.68,.56-3.39,1.16-5.07,1.73-5.41,1.83-10.85,3.69-16.35,5.64-2.54,.9-5.1,1.84-7.65,2.77-4.75,1.72-9.52,3.48-14.33,5.3-2.81,1.06-5.63,2.15-8.46,3.24-4.72,1.83-9.48,3.71-14.25,5.63-2.82,1.13-5.63,2.26-8.47,3.42-5.14,2.11-10.33,4.3-15.53,6.52-2.49,1.06-4.97,2.09-7.48,3.18-7.7,3.34-15.45,6.77-23.29,10.35,0,0,.06-.11,.11-.19,.04-.07,.08-.14,.15-.26,.06-.1,.14-.25,.23-.39,.07-.13,.13-.23,.22-.39,.42-.73,1.02-1.78,1.79-3.13,.04-.07,.08-.15,.13-.22,.39-.68,.81-1.43,1.28-2.25,.02-.04,.04-.07,.06-.11,.99-1.76,2.16-3.84,3.49-6.21,.06-.1,.11-.2,.17-.3,2.02-3.63,4.41-7.94,7.1-12.88,.02-.04,.05-.09,.07-.13,2.68-4.92,5.67-10.46,8.91-16.54,.12-.22,.23-.44,.35-.66,2.13-4.01,4.37-8.25,6.7-12.71,.13-.25,.26-.5,.39-.75,1.01-1.93,2.04-3.91,3.08-5.92,.13-.25,.25-.48,.38-.73,3.2,12.03,6.37,24.06,9.7,36.05-2.84-13.08-5.51-26.12-8.09-39.15,.15-.3,.31-.61,.47-.92,.96-1.86,1.93-3.75,2.91-5.67,.3-.58,.6-1.17,.9-1.76,.93-1.82,1.87-3.68,2.82-5.55,.29-.58,.58-1.15,.88-1.74,1.22-2.41,2.44-4.86,3.69-7.35,.13-.26,.26-.52,.39-.78,1.09-2.18,2.18-4.39,3.29-6.62,.39-.8,.79-1.6,1.19-2.41,.92-1.87,1.84-3.75,2.77-5.65,.37-.75,.73-1.49,1.1-2.25,2.55-5.24,5.14-10.61,7.75-16.1,.4-.83,.8-1.68,1.19-2.52,.95-2.01,1.91-4.04,2.87-6.08,.4-.86,.81-1.72,1.21-2.59,1.09-2.32,2.18-4.67,3.27-7.03,.26-.55,.51-1.1,.77-1.65,1.31-2.84,2.63-5.72,3.95-8.61,.37-.81,.74-1.63,1.11-2.44,.97-2.14,1.94-4.29,2.91-6.45,.46-1.02,.91-2.03,1.37-3.06,.99-2.2,1.97-4.42,2.95-6.65,.37-.83,.73-1.65,1.1-2.48,1.31-2.97,2.61-5.97,3.92-8.98,.34-.79,.68-1.58,1.02-2.37,.99-2.29,1.97-4.59,2.96-6.9,.47-1.1,.93-2.2,1.4-3.3,.92-2.18,1.84-4.37,2.76-6.57,.4-.97,.81-1.94,1.21-2.91,1.29-3.1,2.57-6.21,3.84-9.34,.25-.61,.5-1.23,.75-1.85,1.04-2.56,2.08-5.14,3.11-7.72,.43-1.09,.87-2.18,1.3-3.27,.87-2.21,1.74-4.42,2.61-6.64,.43-1.1,.86-2.19,1.28-3.29,1.15-2.97,2.29-5.95,3.42-8.93,.15-.4,.3-.8,.45-1.2,1.15-3.04,2.28-6.09,3.41-9.15,.38-1.04,.77-2.09,1.15-3.14,.67-1.84,1.34-3.68,2-5.52,.16-.44,.32-.89,.48-1.33,.4-1.12,.8-2.24,1.2-3.36,.93-2.62,1.85-5.24,2.76-7.86,.23-.66,.47-1.33,.69-1.99,1.11-3.23,2.21-6.47,3.29-9.7,.32-.96,.63-1.91,.95-2.87,.78-2.37,1.56-4.75,2.32-7.12,.35-1.1,.71-2.2,1.06-3.3,.8-2.5,1.58-5,2.35-7.49,.25-.81,.51-1.63,.76-2.44,.99-3.24,1.96-6.48,2.91-9.72,.24-.82,.47-1.63,.71-2.44,.72-2.48,1.42-4.95,2.11-7.42,.31-1.09,.61-2.18,.91-3.27,.65-2.36,1.28-4.71,1.9-7.06,.25-.94,.5-1.88,.75-2.82,.84-3.22,1.66-6.43,2.44-9.63,.13-.52,.24-1.03,.37-1.54,.66-2.71,1.3-5.41,1.92-8.1,.23-1.02,.46-2.03,.69-3.04,.52-2.31,1.02-4.62,1.51-6.92,.2-.95,.41-1.91,.6-2.86,.66-3.17,1.29-6.32,1.88-9.46l84.2,9.58,13.09,1.49,43.03,4.9Z"/><path class="cls-6" d="M544.65,1090.7s.07,0,.1,0c2.56,.22,5.14,.42,7.72,.62,1.37,.11,2.73,.23,4.11,.33,.12,0,.24,.02,.36,.03,3.99,.3,8,.58,12.02,.84h0c4.24,15.41,8.61,30.78,13.05,46.12-11.82-1.29-25.16-4.03-38.18-9.53,0,0,16.89,25.24,20.36,67.39-24.09-2.87-47.35-10.5-63.93-26.66,0,0,7.97,44.68-9.97,80.19,0,0,28.21-16.22,73.14-15.73-2.42,20.32-8.27,42.97-19.6,67.47,0,0,40.11-19.55,76.05,5.7,0,0-13.19-31.2-18.77-68.94,4.1,.87,8.3,1.94,12.57,3.13,1.62,4.98,3.19,9.98,4.82,14.95,8.46,25.3,17.36,50.42,26.47,75.45l-10.99,18.15c-.82-.04-1.67-.06-2.49-.1-.76-.04-1.55-.05-2.31-.09-11.74-.52-23.78-.78-36.16-.7-5.87,.04-11.78,.13-17.8,.32-.33,.01-.67,.03-1,.04-.13,0-.27,.01-.4,.02-5.77,.19-11.61,.46-17.51,.79-1.73,.1-3.48,.22-5.22,.33-4.78,.3-9.6,.66-14.47,1.06-2.01,.17-4.02,.34-6.05,.52-5.01,.45-10.08,.97-15.18,1.53-1.7,.19-3.39,.35-5.1,.55-6.87,.8-13.8,1.68-20.83,2.68-.02,0-.04,0-.06,0-3.45-5.68-4.15-4.72-3.04,.47-.03,0-.07,.01-.1,.02-7.48,1.1-15.07,2.33-22.73,3.67-.92,.16-1.85,.32-2.78,.49-7.73,1.37-15.53,2.85-23.45,4.48-.01,0-.03,0-.04,0-4.09-10.95-8.2-21.89-12.18-32.97-2.48,5.2-3.88,12.94-11.19,6.66-12.83-10.48-29.16-66.82-39.08-78.63-20.35-39.24,3.62,29.91,20,70.69-10.15-11.66,11.34,27.01,6.87,28.87-4.47,1.87-8.94,3.75-15.98-1.29-3.52-2.52-7.69-6.78-12.83-13.65-2.91-3.8-6.05-8.49-9.45-14.13,6.93,15.71,14,31.35,21.19,46.91-.17,.04-.34,.09-.51,.14-3.76,1-7.51,1.99-11.3,3.05-.03,0-.05,.01-.08,.02-3.05-6.43-6.07-12.79-9.03-19.04-6.87-15.23-13.67-29.72-20.48-43-.61,.89-1.26,1.6-2,1.89-2.72-6.76-5.38-13.61-8.06-20.44-.85-1.48-1.7-2.98-2.54-4.41-5.81-13.2-3.03,17.03-13.33,5.81-5.61-13.34-16.83-40.01-22.45-53.36-12.32-10.59-7.8,18.96-20.14,8.33-9.92-8.1-21.91-43.52-31.44-64.68,0,0,0,0,0,0,.01-.03,.03-.06,.04-.09,2.41-5.38,4.92-10.8,7.51-16.25,.18-.39,.37-.77,.55-1.16,2.45-5.14,5-10.31,7.61-15.51,.41-.82,.84-1.64,1.26-2.47,2.45-4.81,4.96-9.64,7.55-14.49,.72-1.35,1.47-2.7,2.2-4.05,2.38-4.4,4.81-8.81,7.32-13.23,1.09-1.93,2.24-3.87,3.36-5.81,2.27-3.92,4.54-7.84,6.91-11.78,1.57-2.6,3.21-5.21,4.82-7.82,2.07-3.35,4.11-6.69,6.25-10.05,2.24-3.5,4.58-7.01,6.9-10.52,1.67-2.53,3.29-5.06,5.01-7.59,4.13-6.09,8.39-12.2,12.78-18.3,0,0,.12,.03,.29,.08,.04,.01,.09,.02,.14,.04,.19,.05,.46,.12,.79,.2,.09,.02,.19,.05,.29,.07,.36,.09,.78,.2,1.27,.32,.11,.03,.21,.05,.32,.08,.53,.13,1.14,.28,1.8,.45,.17,.04,.32,.08,.5,.12,.77,.19,1.62,.4,2.55,.62,.04,.01,.08,.02,.12,.03,13.17,3.2,41.66,9.78,79.4,16.62,5.64,1.02,11.48,2.05,17.51,3.07,34.03,5.77,73.98,11.4,116.33,15.02Z"/><path class="cls-6" d="M599.07,1195.52c.23,.74,.45,1.47,.68,2.21-.26,.01-.53,.01-.79,.02,.04-.74,.06-1.49,.11-2.23Z"/><path class="cls-6" d="M255.58,1249.83c-10.15-11.66,11.34,27.01,6.87,28.88-4.47,1.87-8.93,3.75-15.98-1.29-3.52-2.52-7.69-6.78-12.83-13.65-3.57-4.66-7.46-10.62-11.79-18.07t0,0s.02-.04,.02-.06c2.33-6.39,4.8-12.87,7.38-19.41,.23-.57,.44-1.14,.67-1.72,2.68-6.75,5.48-13.57,8.45-20.47,5.26,14.99,11.67,32.01,17.2,45.8Z"/><path class="cls-4" d="M619.88,1307.48c-35.94-25.25-76.05-5.7-76.05-5.7,11.32-24.5,17.18-47.15,19.6-67.47-44.93-.49-73.14,15.73-73.14,15.73,17.94-35.51,9.97-80.19,9.97-80.19,16.59,16.16,39.84,23.79,63.93,26.66-3.47-42.15-20.36-67.39-20.36-67.39,13.02,5.5,26.35,8.24,38.18,9.53,21.46,2.34,37.87-.17,37.87-.17-13.42,15.8-19.29,36.06-20.81,57.04-.05,.74-.07,1.49-.11,2.23,.26,0,.53-.01,.79-.02,39.74-1.55,73.67-11.41,73.67-11.41-27.64,34.14-10.87,75.49-10.87,75.49-17.14-9.39-33.5-15.82-48.87-20.13-4.26-1.19-8.47-2.26-12.57-3.13,5.58,37.75,18.77,68.94,18.77,68.94Z"/><polygon class="cls-6" points="582 1138.64 613.68 1241.67 626.82 1317.51 472.26 1298.62 465.51 1176.74 542.72 1114.14 582 1138.64"/><path class="cls-9" d="M586.7,1220.66s36,10.14,55.21,23.85c17.5,12.5,15.7,28.91,4.69,37.5-12.81,10-31.98-1.77-31.98-1.77,0,0-1.25,20.83-13.75,25.42-12.5,4.58-29.22-.21-29.19-27.4,.02-22.93,15.03-57.6,15.03-57.6Z"/><path class="cls-1" d="M582.76,1218.55s-10.14,36-23.85,55.21c-12.5,17.5-28.91,15.7-37.5,4.69-10-12.81,1.77-31.98,1.77-31.98,0,0-20.83-1.25-25.42-13.75s.21-29.22,27.4-29.19c22.93,.02,57.6,15.03,57.6,15.03Z"/><path class="cls-13" d="M584.44,1215.3s-36-10.14-55.21-23.85c-17.5-12.5-15.7-28.91-4.69-37.5,12.81-10,31.98,1.77,31.98,1.77,0,0,1.25-20.83,13.75-25.42,12.5-4.58,29.22,.21,29.19,27.4-.02,22.93-15.03,57.6-15.03,57.6Z"/><path class="cls-1" d="M588.98,1216s10.14-36,23.85-55.21c12.5-17.5,28.91-15.7,37.5-4.69,10,12.81-1.77,31.98-1.77,31.98,0,0,20.83,1.25,25.42,13.75,4.58,12.5-.21,29.22-27.4,29.19-22.93-.02-57.6-15.03-57.6-15.03Z"/><path class="cls-9" d="M587.85,719.94s32.77,9.23,50.25,21.71c15.93,11.38,14.29,26.31,4.27,34.13-11.66,9.1-29.11-1.61-29.11-1.61,0,0-1.14,18.96-12.52,23.13-11.38,4.17-26.6-.19-26.57-24.94,.02-20.87,13.68-52.43,13.68-52.43Z"/><path class="cls-1" d="M584.26,718.02s-9.23,32.77-21.71,50.25c-11.38,15.93-26.31,14.29-34.13,4.27-9.1-11.66,1.61-29.11,1.61-29.11,0,0-18.96-1.14-23.13-12.52s.19-26.6,24.94-26.57c20.87,.02,52.43,13.68,52.43,13.68Z"/><path class="cls-13" d="M585.78,715.05s-32.77-9.23-50.25-21.71c-15.93-11.38-14.29-26.31-4.27-34.13,11.66-9.1,29.11,1.61,29.11,1.61,0,0,1.14-18.96,12.52-23.13,11.38-4.17,26.6,.19,26.57,24.94-.02,20.87-13.68,52.43-13.68,52.43Z"/><path class="cls-1" d="M589.92,715.69s9.23-32.77,21.71-50.25c11.38-15.93,26.31-14.29,34.13-4.27,9.1,11.66-1.61,29.11-1.61,29.11,0,0,18.96,1.14,23.13,12.52,4.17,11.38-.19,26.6-24.94,26.57-20.87-.02-52.43-13.68-52.43-13.68Z"/><path class="cls-9" d="M555.79,303.22s24.32,6.85,37.29,16.11c11.82,8.44,10.6,19.52,3.17,25.33-8.65,6.75-21.6-1.2-21.6-1.2,0,0-.84,14.07-9.29,17.17s-19.74-.14-19.72-18.5c.02-15.49,10.15-38.9,10.15-38.9Z"/><path class="cls-1" d="M553.13,301.8s-6.85,24.32-16.11,37.29c-8.44,11.82-19.52,10.6-25.33,3.17-6.75-8.65,1.2-21.6,1.2-21.6,0,0-14.07-.84-17.17-9.29-3.1-8.44,.14-19.74,18.5-19.72,15.49,.02,38.9,10.15,38.9,10.15Z"/><path class="cls-13" d="M554.26,299.6s-24.32-6.85-37.29-16.11c-11.82-8.44-10.6-19.52-3.17-25.33,8.65-6.75,21.6,1.2,21.6,1.2,0,0,.84-14.07,9.29-17.17,8.44-3.1,19.74,.14,19.72,18.5-.02,15.49-10.15,38.9-10.15,38.9Z"/><path class="cls-1" d="M557.33,300.07s6.85-24.32,16.11-37.29c8.44-11.82,19.52-10.6,25.33-3.17,6.75,8.65-1.2,21.6-1.2,21.6,0,0,14.07,.84,17.17,9.29,3.1,8.44-.14,19.74-18.5,19.72-15.49-.02-38.9-10.15-38.9-10.15Z"/></g></svg>