<?xml version="1.0" encoding="UTF-8"?>
<svg id="Layer_1" xmlns="http://www.w3.org/2000/svg" viewBox="0 0 525.36 502.76">
    <defs>
        <style>.cls-1{fill:#16613d;}</style>
    </defs>
    <path class="cls-1" d="M117.02,67.95c169.31-33.6,273.16,114.76,326.4,240,0,0-117.09,8.29-212.8,54.98,0,0,37.38-41.45,170.04-76.65-34.04-83.93-110.84-148.51-206.84-185.6,0,0,50.04,93.38,36.8,183.27-8.44-75.49-33.31-151.42-113.6-216Z"/>
    <path class="cls-1" d="M177.24,170.93c24.39,39.42,37.53,95.56,27.49,138.33s-54.11,92.07-87.71,107.35c104.73-95.13,56.29-252.02,60.22-245.67Z"/>
    <path class="cls-1" d="M129.68,432.31c100.95-65.02,269.24-99.93,320.29-102.98,.6,48-18.76,127.42-109.53,127.42,0,0,85.3-40.15,83.78-98.18,0,0-144,24.87-294.55,73.75Z"/>
</svg>